<svg id="Layer_1" data-name="Layer 1" xmlns="http://www.w3.org/2000/svg" xmlns:xlink="http://www.w3.org/1999/xlink" viewBox="0 0 877.5354 336.6475"><defs><style>.cls-1,.cls-5{fill:#fb5264;}.cls-1,.cls-2,.cls-7{stroke:#fff;stroke-linejoin:round;stroke-width:2px;}.cls-10,.cls-2{fill:#24fb61;}.cls-3{opacity:0.6;}.cls-4{isolation:isolate;}.cls-6{clip-path:url(#clip-path);}.cls-7{fill:none;}.cls-8{clip-path:url(#clip-path-2);}.cls-9{fill:#fff;}.cls-11{clip-path:url(#clip-path-3);}.cls-12{clip-path:url(#clip-path-4);}.cls-13{clip-path:url(#clip-path-5);}.cls-14{clip-path:url(#clip-path-6);}.cls-15{clip-path:url(#clip-path-7);}.cls-16{clip-path:url(#clip-path-8);}.cls-17{clip-path:url(#clip-path-9);}</style><clipPath id="clip-path" transform="translate(-242.8169 -215.8389)"><path class="cls-1" d="M505.5316,291.5375l-.1156,40.7581c-.01,3.5526-2.3446,7.1-7.0084,9.81-9.3879,5.4556-24.6613,5.4557-34.1106,0-4.755-2.7453-7.13-6.3494-7.12-9.9479l.1155-40.7582c-.01,3.5986,2.3647,7.2027,7.12,9.948,9.4493,5.4555,24.7227,5.4555,34.1105,0C503.1869,298.6374,505.5215,295.09,505.5316,291.5375Z"/></clipPath><clipPath id="clip-path-2" transform="translate(-242.8169 -215.8389)"><path class="cls-1" d="M559.1841,380.0714l-.1155,40.7581c-.03,10.7249-7.28,21.5952-21.6686,29.9567-28.17,16.3706-73.0325,16.9237-100.1992,1.239-13.295-7.6759-19.8916-17.8173-19.8625-28.0915l.1155-40.7581c-.0291,10.2742,6.5676,20.4156,19.8626,28.0915,27.1667,15.6847,72.0292,15.1316,100.1992-1.239C551.9036,401.6666,559.1537,390.7963,559.1841,380.0714Z"/></clipPath><clipPath id="clip-path-3" transform="translate(-242.8169 -215.8389)"><path class="cls-2" d="M710.8475,363.87l-.5,40.3945c-.0448,3.6193-2.4212,7.2114-7.1252,9.9273-9.4493,5.4555-24.7219,5.3025-34.1089-.3418-4.718-2.8369-7.0519-6.5214-7.0067-10.1776l.5-40.3945c-.0452,3.6562,2.2887,7.3407,7.0067,10.1776,9.387,5.6443,24.66,5.7973,34.1089.3418C708.4263,371.0816,710.8027,367.49,710.8475,363.87Z"/></clipPath><clipPath id="clip-path-4" transform="translate(-242.8169 -215.8389)"><path class="cls-2" d="M936.9475,293.33l.5-40.3945a9.7844,9.7844,0,0,0,.4371,2.997l-.5,40.3945A9.7844,9.7844,0,0,1,936.9475,293.33Z"/></clipPath><clipPath id="clip-path-5" transform="translate(-242.8169 -215.8389)"><path class="cls-2" d="M1030.12,324.4042l-.5,40.3945c.06-4.8783-2.694-9.7925-8.2642-13.8117l.5-40.3945C1027.4255,314.6117,1030.18,319.5259,1030.12,324.4042Z"/></clipPath><clipPath id="clip-path-6" transform="translate(-242.8169 -215.8389)"><path class="cls-2" d="M882.258,334.88l.5-40.3944c-.1363,11.0286,7.111,22.314,21.6623,31.0635a85.3872,85.3872,0,0,0,19.4834,8.4869A117.7022,117.7022,0,0,0,967.8849,338.5c13.5682-1.1729,26.38-4.7121,36.7356-10.6911,8.4661-4.8878,14.2588-10.8338,17.2348-17.2168l-.5,40.3945c-2.976,6.383-8.7687,12.3289-17.2348,17.2168-10.3558,5.979-23.1673,9.5182-36.7355,10.6911a117.7026,117.7026,0,0,1-43.9818-4.4646,85.3954,85.3954,0,0,1-19.4834-8.4869C889.3691,357.1939,882.1217,345.9085,882.258,334.88Z"/></clipPath><clipPath id="clip-path-7" transform="translate(-242.8169 -215.8389)"><path class="cls-2" d="M1066.35,324.8347l-.5,40.3945c-.1342,10.8527-7.2616,21.6213-21.3672,29.7652-17.5005,10.1039-41.66,13.7807-64.2052,11.1659l.5-40.3945c22.5456,2.6148,46.7047-1.062,64.2052-11.1659C1059.0888,346.456,1066.2162,335.6874,1066.35,324.8347Z"/></clipPath><clipPath id="clip-path-8" transform="translate(-242.8169 -215.8389)"><path class="cls-2" d="M700.7782,453.7478l-.5,40.3945c.1031-8.3343-5.4513-16.9253-16.56-23.6046-21.2412-12.7721-54.7359-13.7228-74.8157-2.13-9.58,5.5312-14.379,12.9174-14.473,20.5166l.5-40.3945c.094-7.5992,4.8926-14.9854,14.473-20.5166,20.08-11.5931,53.5745-10.6424,74.8157,2.13C695.3269,436.8225,700.8813,445.4135,700.7782,453.7478Z"/></clipPath><clipPath id="clip-path-9" transform="translate(-242.8169 -215.8389)"><path class="cls-2" d="M550.8441,486.7791l.5-40.3945c-.1879,15.1966,9.94,30.86,30.1969,43.04,38.7277,23.2866,99.812,25.0238,136.4408,3.8762,8.8364-5.1017,15.4311-11.07,19.8267-17.5171l-.5,40.3945c-4.3956,6.4475-10.99,12.4154-19.8267,17.5171-36.6288,21.1476-97.7131,19.41-136.4408-3.8762C560.7846,517.6389,550.6562,501.9757,550.8441,486.7791Z"/></clipPath></defs><g class="cls-3"><path d="M449.7477,265.7781l-8.5554-4.94h-54L276.6818,325.06l-29.75,17.2885,29.95,17.2919,47.0613,27.1708h54l8.5-4.94c11.7349-6.82,11.6726-17.8781-.1454-24.7012l-25.6663-14.8185,89.2609-51.8728C461.628,283.66,461.5657,272.6012,449.7477,265.7781Z" transform="translate(-242.8169 -215.8389)"/><path d="M507.7878,348.5222a30.6154,30.6154,0,0,0-15.114-3.5749l.0055-.0042H438.8612a30.3334,30.3334,0,0,0-14.9265,3.583l-82.88,48.1644,29.9441,17.2882h54l82.88-48.1644C516.1,361.0369,516.0559,353.2958,507.7878,348.5222Z" transform="translate(-242.8169 -215.8389)"/><path d="M552.4119,322.59c-4.7046-2.7161-10.8529-4.0778-17-4.0894v-.0022h-54V318.5c-6.1992-.0116-12.3969,1.35-17.1108,4.09-9.3879,5.4556-9.3381,14.3025.1112,19.7581,4.7045,2.7162,10.8528,4.0779,17,4.0894v.0013h.0478c.0207,0,.0412,0,.0618,0h53.89v-.0013c6.1993.0116,12.397-1.35,17.1109-4.09C561.911,336.892,561.8612,328.045,552.4119,322.59Z" transform="translate(-242.8169 -215.8389)"/><path d="M593.3271,392.9849c-13.09-7.5573-30.2847-11.3343-47.7406-11.4015l0-.0123H488.319v.0428c-17.7106.4023-35.4436,4.6135-49.1974,12.6064-28.17,16.3706-28.9784,42.3584-1.8052,58.0468,13.9027,8.0267,32.44,11.79,51.0026,11.3677v.01h48.6922q2.4585.05,4.9241,0h.3821l0-.01c17.71-.4025,35.4437-4.6138,49.1978-12.6068C619.6855,434.6575,620.4938,408.67,593.3271,392.9849Z" transform="translate(-242.8169 -215.8389)"/><path d="M798.063,491.9713c-1.8139-13.6125-11.8178-27.2509-29.8941-38.12-20.8417-12.5319-48.1567-18.8114-74.651-18.6537l-.0016-.0112H640.9348l0,.0028c-23.2331-.0632-45.9354,4.8143-63.2006,14.7824-36.6287,21.1476-34.9216,57.1663,3.806,80.4528,20.0046,12.0286,45.9731,18.2912,71.4562,18.6361l.0033.0313h57.294l-.0023-.0156c22.7029-.1495,44.7976-5.023,61.69-14.7756,8.8364-5.1017,15.4311-11.07,19.8267-17.5172l12.0333.1244c8.3013.0813,15.8279-1.8271,21.2869-4.9788s8.85-7.5467,8.8808-12.4385l.0337-7.1587Z" transform="translate(-242.8169 -215.8389)"/><path d="M798.1978,421.4883a30.0189,30.0189,0,0,0-14.7013-3.7871l.004-.0049h-.1323c-.0814-.001-.1626,0-.244,0h-53.756c-.0814-.001-.1626,0-.244,0h-.6851l.0176.012a29.5106,29.5106,0,0,0-14.1106,3.4772c-8.2681,4.7735-8.3123,12.6484-.0924,17.5911l82.8719,49.83h54L881.07,471.3184Z" transform="translate(-242.8169 -215.8389)"/><path d="M757.8416,394.694c-4.7145-2.8347-10.9134-4.2821-17.1145-4.3313v-.0017h-54l0,.0017c-6.146-.0489-12.2942,1.2758-17.001,3.9933-9.4493,5.4555-9.5,14.4553-.1128,20.1,4.9269,2.9625,11.4745,4.3967,17.9513,4.3166l0,.0188h53.1619v-.0036c6.1452.0493,12.2917-1.2744,16.9953-3.99C767.178,409.3382,767.2286,400.3383,757.8416,394.694Z" transform="translate(-242.8169 -215.8389)"/><path d="M966.6368,421.9161l29.9441-17.2882-51-30.6661-2.1248-1.2776c-13.8738-8.3422-32.2129-12.5018-50.4518-12.4528L893,360.22H837.6168l.0026.0205c-16.7822.2371-33.3812,4.0369-46.2333,11.4571-27.1731,15.6884-27.3184,41.563-.3245,57.7942l2.1248,1.2777,50.8712,30.5882-.0576.0778h54.187l29.944-17.2882-4.04-2.4293-32.9326-19.8021h-.003l-14.0247-8.4329c-7.9331-4.77-10.3366-11.4841-7.069-17.1654l38.5351,23.1708,4.0373,2.4275h54.0029Z" transform="translate(-242.8169 -215.8389)"/><path d="M1099.3152,335.2968l-93.5018-56.2218h-54l-6.3209,3.6494c-6.6144,3.8188-9.1519,9.1711-7.6084,14.208-13.0026,1.31-25.3237,4.8053-35.2646,10.5447-27.1667,15.6847-26.3733,42.1313,1.8,59.0718a85.3946,85.3946,0,0,0,19.4833,8.4869A117.7009,117.7009,0,0,0,967.8849,379.5a105.4411,105.4411,0,0,0,16.4753-2.7189,119.0546,119.0546,0,0,0,36.2189,2.8171c-.3574.2254-.7218.4483-1.0994.6664-9.6727,5.5845-23.4983,7.2573-35.7238,5.0459l-2.9779,21.4549a123.025,123.025,0,0,0,13.3891.8026l-.0224.0081h55.6705l-.0108-.0184c17.8268-.1249,35.5286-4.0773,49.1788-11.9582C1127.3438,379.2259,1127.4952,352.2412,1099.3152,335.2968Z" transform="translate(-242.8169 -215.8389)"/></g><path class="cls-1" d="M404.6529,237.218c0,.1779-.0136.3556-.0234.5333-.0083.1507-.0173.3013-.0323.4518-.0132.1328-.0316.2655-.05.3982-.0209.15-.0431.3-.0708.45-.0245.1332-.0534.2662-.0832.399-.0329.1467-.0676.2933-.107.4395-.0359.1332-.0756.2662-.1168.399-.0452.1456-.0926.2908-.1442.4358-.0462.13-.0958.26-.1473.3893q-.0909.2292-.1926.4571-.0852.1909-.1776.3808c-.0739.1513-.1523.302-.2334.4523-.0659.1222-.133.2441-.2036.3656-.1042.1789-.2158.3567-.33.5339-.07.1079-.1371.2161-.2106.3234-.1339.1955-.2782.3892-.4249.5824-.0643.0847-.1239.17-.1907.2546-.2437.3075-.5053.6112-.7816.9117-.0714.0776-.1485.1539-.2221.2311q-.3266.3423-.6811.6779c-.1089.1028-.218.2055-.3308.3072-.141.1271-.2862.2529-.4335.3782-.1362.116-.2738.2317-.4155.3462-.154.1245-.3128.2475-.4731.37-.1471.1125-.2951.2247-.4475.3355-.166.1206-.3373.24-.51.3584-.1585.1092-.3174.2182-.4813.3256-.1778.1166-.3613.2311-.5454.3455-.2308.1434-.4589.2877-.7.4276l-89.2609,51.8728-.1155,40.7581,89.2609-51.8728q.1858-.108.3678-.2174c.1143-.0687.22-.1406.3317-.21.1842-.1143.3676-.2289.5455-.3455.1637-.1073.3224-.2162.4808-.3252.1727-.119.3444-.2383.5109-.3594.1518-.11.2991-.222.4456-.3341.1608-.1229.32-.2462.4744-.371.1416-.1144.2791-.23.4153-.3461.1472-.1253.2925-.2511.4334-.3781.0584-.0526.1222-.1038.1795-.1567.0535-.0494.0986-.1008.1511-.1505q.356-.336.6825-.6792c.073-.0766.1495-.1522.22-.2293.2765-.3007.5382-.6046.7821-.9123.01-.0132.0232-.0259.0336-.0391.056-.0712.1029-.144.1572-.2155.1466-.1932.2909-.3868.4249-.5824.0735-.1073.1409-.2155.2106-.3234.1144-.1773.226-.3549.33-.5338.0285-.049.0626-.097.09-.146.0411-.0728.074-.1467.1134-.22.081-.15.1595-.301.2334-.4523.0619-.1266.1207-.2535.1775-.3808q.1019-.2279.1927-.4571c.0271-.0682.06-.1358.086-.2041.023-.0614.0393-.1234.0612-.185.0517-.1454.0994-.291.1446-.4371.041-.1321.08-.2643.1162-.3969.0395-.1468.0743-.2938.1073-.441.0178-.0793.042-.1581.0578-.2374.0107-.0534.0155-.1071.0253-.1607.0278-.1506.05-.3014.0711-.4524.0184-.1318.0366-.2634.05-.3953.0152-.1518.0241-.3035.0325-.4554.0049-.0887.0165-.1773.019-.2661s.004-.1765.0043-.2647v0Z" transform="translate(-242.8169 -215.8389)"/><polygon class="cls-1" points="34.066 102.802 4.115 85.51 4 126.268 33.95 143.56 81.012 170.731 81.127 129.973 34.066 102.802"/><path class="cls-1" d="M341.18,329.1416c-.0083.1518-.0174.3037-.0325.4553-.0132.1319-.0314.2636-.05.3953-.021.151-.0433.3019-.0711.4526-.0244.1327-.0533.2652-.083.3977-.0331.1474-.068.2946-.1075.4416-.0356.1323-.075.2642-.1159.3961-.0454.1462-.0931.2923-.1449.438-.0462.13-.0957.2593-.1471.3886q-.0909.2292-.1926.4572c-.0569.1272-.1157.2542-.1776.3808-.0739.1513-.1523.3019-.2334.4523-.0659.1221-.133.2441-.2037.3656-.1041.1791-.216.357-.3305.5344-.07.1076-.1367.2156-.21.3226-.1349.197-.28.3921-.428.5867-.0631.0831-.1216.167-.1871.25-.2441.308-.5062.6124-.7829.9133-.0708.077-.1473.1527-.22.2291q-.3276.3435-.6834.68c-.1082.1022-.2166.2042-.3288.3053-.1415.1276-.2873.254-.4351.38-.1362.1159-.2738.2315-.4153.3458-.1539.1244-.3125.2474-.4728.37-.1469.1123-.2946.2244-.4468.335-.1664.121-.338.24-.5107.3592-.1584.1091-.3171.218-.4808.3253-.1778.1166-.3613.2311-.5455.3455-.2307.1434-.4588.2877-.7.4275l-8.5,4.94-.1155,40.7581,8.5-4.9395q.1858-.108.3678-.2174c.1143-.0688.22-.1406.3317-.21.1841-.1144.3676-.2289.5455-.3455.1637-.1073.3224-.2163.4807-.3253.1728-.1189.3443-.2382.5107-.3592.1521-.1105.3-.2224.4464-.3346.1606-.1228.32-.246.4738-.3707.1413-.1141.2784-.2294.4143-.3451.1479-.1259.2939-.2523.4355-.38.058-.0523.1215-.1032.1784-.1557.0533-.0492.0983-.1.1506-.15q.3557-.336.6821-.6789c.0736-.077.1506-.1533.2219-.2308.2764-.3006.538-.6045.7819-.9122.01-.013.0229-.0256.0332-.0387.0558-.0709.1025-.1434.1566-.2147.1468-.1933.2912-.3871.4253-.5829.0735-.1073.141-.2155.2107-.3235.1146-.1776.2264-.3555.3306-.5347.0283-.0487.0623-.0965.09-.1454.0411-.0727.074-.1466.1134-.22.0809-.15.1593-.3.2331-.4516q.093-.19.1781-.3819.1017-.2279.1925-.4568c.0271-.0682.06-.1357.086-.204.023-.0613.0392-.1232.061-.1846.0519-.1456.0995-.2913.1448-.4375.041-.1324.0805-.2647.1163-.3975.0394-.1463.0741-.2928.107-.44.0179-.0795.0421-.1585.058-.2382.0108-.0535.0154-.1073.0253-.1609.0278-.1505.05-.3013.0711-.4522.0184-.1318.0366-.2635.05-.3954.0152-.1517.0242-.3034.0326-.4553.0049-.0887.0165-.1773.019-.2661s.004-.1766.0042-.2648l.1156-40.7581C341.2032,328.7877,341.19,328.9647,341.18,329.1416Z" transform="translate(-242.8169 -215.8389)"/><path class="cls-2" d="M395.7478,224.7781c11.818,6.8231,11.88,17.8817.1453,24.7013l-89.2609,51.8728,25.6663,14.8185c11.818,6.8231,11.88,17.8817.1454,24.7013l-8.5,4.94-47.0613-27.1709-29.95-17.2919,29.75-17.2885,110.51-64.2217Z" transform="translate(-242.8169 -215.8389)"/><g class="cls-4"><path class="cls-5" d="M505.5316,291.5375l-.1156,40.7581c-.01,3.5526-2.3446,7.1-7.0084,9.81-9.3879,5.4556-24.6613,5.4557-34.1106,0-4.755-2.7453-7.13-6.3494-7.12-9.9479l.1155-40.7582c-.01,3.5986,2.3647,7.2027,7.12,9.948,9.4493,5.4555,24.7227,5.4555,34.1105,0C503.1869,298.6374,505.5215,295.09,505.5316,291.5375Z" transform="translate(-242.8169 -215.8389)"/><g class="cls-6"><path class="cls-1" d="M505.5282,291.7494a8.2375,8.2375,0,0,1-.1582,1.3841,8.77,8.77,0,0,1-.39,1.358,9.7765,9.7765,0,0,1-.6425,1.3714,11.3735,11.3735,0,0,1-.9707,1.4412,13.8973,13.8973,0,0,1-1.4959,1.6084,18.6826,18.6826,0,0,1-3.0538,2.2611q-.1457.0877-.2943.1741a27.2686,27.2686,0,0,1-5.2847,2.3237,34.9386,34.9386,0,0,1-4.5663,1.1368c-1.0112.1823-2.0392.3252-3.0769.4285q-1.3293.1325-2.6753.1783-1.2339.0421-2.4708.0115-1.1916-.03-2.3762-.1272-1.1807-.0972-2.3453-.2621-1.21-.1714-2.3915-.4159-1.2806-.2654-2.5159-.6167c-1.0061-.2867-1.985-.6163-2.9288-.9889a26.2083,26.2083,0,0,1-3.4788-1.6679c-4.755-2.7453-7.13-6.3494-7.12-9.948l-.1155,40.7582c-.01,3.5985,2.3647,7.2026,7.12,9.9479a26.2031,26.2031,0,0,0,3.4789,1.6679c.9437.3726,1.9227.7022,2.9288.9889q1.233.3513,2.5159.6167,1.18.2445,2.3915.4159,1.163.1649,2.3452.2621t2.3762.1272q1.2351.0308,2.4708-.0115,1.3437-.0459,2.6754-.1783c1.0376-.1033,2.0657-.2461,3.0768-.4285a34.9361,34.9361,0,0,0,4.5664-1.1368,27.2618,27.2618,0,0,0,5.2847-2.3237q.1487-.0864.2942-.174a18.6894,18.6894,0,0,0,3.0539-2.2611,13.8962,13.8962,0,0,0,1.4958-1.6085,11.3629,11.3629,0,0,0,.9707-1.4412,9.7652,9.7652,0,0,0,.6425-1.3714,8.7705,8.7705,0,0,0,.39-1.358,8.2479,8.2479,0,0,0,.1582-1.3841q.003-.1059.0033-.2119l.1156-40.7581Q505.5313,291.6434,505.5282,291.7494Z" transform="translate(-242.8169 -215.8389)"/></g><path class="cls-7" d="M505.5316,291.5375l-.1156,40.7581c-.01,3.5526-2.3446,7.1-7.0084,9.81-9.3879,5.4556-24.6613,5.4557-34.1106,0-4.755-2.7453-7.13-6.3494-7.12-9.9479l.1155-40.7582c-.01,3.5986,2.3647,7.2027,7.12,9.948,9.4493,5.4555,24.7227,5.4555,34.1105,0C503.1869,298.6374,505.5215,295.09,505.5316,291.5375Z" transform="translate(-242.8169 -215.8389)"/></g><ellipse class="cls-2" cx="481.4123" cy="291.4687" rx="13.971" ry="24.12" transform="translate(-54.2373 556.2136) rotate(-89.8375)"/><path class="cls-1" d="M459.9643,316.8434c-.02.2219-.0353.4439-.076.6648-.0333.1809-.0882.36-.1354.54-.0552.2105-.1067.4214-.1809.63-.0615.1729-.143.3435-.2174.515-.0957.22-.1911.44-.3082.6576a9.4043,9.4043,0,0,1-.5392.893c-.033.0478-.07.0948-.1039.1424a10.9875,10.9875,0,0,1-.6932.8661c-.0477.0541-.0906.1092-.14.163-.2717.2969-.572.5872-.8891.873-.2026.1826-.4284.3588-.6495.5363-.1945.1561-.3814.3143-.59.4661-.2394.174-.5035.34-.7617.5081-.2649.1724-.5162.3493-.801.5149l-82.88,48.1644-.1155,40.7581,82.88-48.1644q.13-.0757.2579-.1525c.1939-.1166.3593-.2428.5437-.3628.2581-.1679.5216-.3335.7609-.5075.2092-.1521.3962-.31.591-.4668.2211-.1774.4464-.3532.6489-.5357.0408-.0368.0909-.0711.131-.1082.2714-.25.5217-.5063.7585-.7653.0488-.0533.0912-.1079.1386-.1616.1409-.16.2848-.319.4128-.4815.1-.1274.189-.2569.2813-.3857.034-.0475.0708-.0945.1039-.1423.1675-.2425.3251-.4867.4646-.7338.03-.0526.0464-.1068.0748-.16.1169-.2171.212-.4366.3075-.6564.056-.1287.1315-.2548.18-.3843.0164-.0435.0223-.0879.0378-.1315.0742-.2088.1253-.4191.1806-.63.0375-.1428.0939-.2841.1227-.4275.0075-.0378.006-.0761.013-.114.0406-.2206.0559-.4418.0758-.6632.013-.1448.0454-.2889.05-.4338q.0027-.0927.0029-.1854l.1156-40.7582C460.0161,316.4316,459.9828,316.6374,459.9643,316.8434Z" transform="translate(-242.8169 -215.8389)"/><polygon class="cls-1" points="128.182 157.14 128.067 197.898 98.123 180.61 98.238 139.852 128.182 157.14"/><path class="cls-2" d="M453.7878,307.5223c8.2681,4.7736,8.3117,12.5146.091,17.292l-82.88,48.1644-29.944-17.2882,82.88-48.1644C432.1555,302.7487,445.52,302.7486,453.7878,307.5223Z" transform="translate(-242.8169 -215.8389)"/><path class="cls-1" d="M512.7112,367.4524c-.77-.4445-1.5736-.857-2.3993-1.2471-.2721-.1285-.5582-.2411-.8358-.3637-.455-.201-.9014-.4114-1.37-.5965-.1331-.0525-.2725-.0973-.4067-.1485-.2022-.0773-.4078-.1494-.6124-.2237q-1.0392-.3776-2.1155-.7058c-.1717-.0523-.34-.1089-.5127-.1593-.08-.0234-.1576-.051-.2381-.074-.7684-.219-1.5533-.4126-2.3449-.5945-.1581-.0364-.3157-.0723-.4746-.1072-.1874-.0411-.3718-.0874-.56-.1265-.3539-.0733-.72-.1212-1.0773-.1873-.5657-.1045-1.13-.21-1.7033-.2961-.1521-.0229-.2992-.057-.4518-.0786-.3632-.0515-.7347-.0786-1.1006-.1229-.54-.0654-1.0785-.1317-1.6234-.1814-.1638-.015-.3242-.0411-.4884-.0546-.3585-.03-.722-.0351-1.0821-.0579-.5612-.0355-1.1211-.0709-1.6853-.09-.175-.0059-.348-.0235-.5233-.0279-.3276-.0082-.6568.0073-.985.0047-.6265-.0051-1.2514-.0061-1.8788.0089-.2052.0049-.41-.0041-.6152.0029q-.9656.0331-1.9294.0985c-.0293.002-.0582.0053-.0874.0073-.589.0405-1.1773.088-1.7638.1461-.3179.0316-.633.0765-.95.1132-.2562.03-.5115.0585-.7668.0915-.9317.1208-1.86.2562-2.7773.4222-.0156.0028-.0307.007-.0463.01q-1.6509.3-3.26.6988c-.298.0737-.5848.1667-.88.2454-.7672.2044-1.532.4125-2.2788.6508-.0675.0215-.1386.037-.206.0588-.79.2561-1.5646.5361-2.3278.83-.19.0735-.3747.154-.5634.23q-1.0107.406-1.9827.8575c-.2274.1055-.4546.21-.6786.32-.8.39-1.5863.796-2.34,1.2337q-.2249.1307-.4448.263c-.13.0781-.2491.16-.3764.2385-.2257.14-.45.28-.6678.4232-.19.1243-.374.25-.5576.3763-.2106.1449-.4189.29-.6215.4374-.177.1285-.3495.2584-.52.3887q-.2929.2235-.5747.45-.2463.1987-.4828.4-.27.229-.5277.461c-.0785.0706-.164.1394-.2409.21-.0563.052-.1037.1062-.1591.1585q-.4436.4185-.849.8457c-.069.0725-.143.144-.21.2169q-.49.5312-.92,1.0742c-.02.0256-.045.05-.0652.0761-.069.0875-.1267.177-.1934.265-.1608.2121-.3185.4245-.4662.6388-.09.13-.174.2613-.2588.3924-.1326.2047-.26.41-.3811.6164-.04.0684-.0876.1357-.1263.2042-.0409.0724-.0733.1457-.1126.2182-.0941.1733-.1831.347-.269.5212-.073.1483-.1444.2968-.2114.4458-.0785.1746-.1511.3495-.2214.5248-.0366.0913-.081.182-.1153.2735-.0228.0606-.0387.1218-.06.1824-.059.1645-.1119.3291-.1636.494-.049.1561-.0975.3121-.14.4686-.0453.1665-.084.3331-.1219.5-.023.1012-.0537.2019-.0739.3031-.011.0548-.0158.11-.026.1646-.031.167-.0551.3339-.0789.5009-.0223.1566-.0447.3132-.06.47-.0169.167-.0266.3338-.0361.5009-.0061.1069-.02.2139-.0231.3208q-.0044.1509-.0049.3019l-.1155,40.7581c.0006-.2074.0161-.4151.028-.6227.01-.1669.0192-.3339.036-.5009.0158-.1566.0383-.3131.0606-.47.0237-.1671.0478-.3341.0789-.501.029-.156.0644-.3118.1-.4677.0379-.1668.0766-.3335.1219-.5.0426-.1565.091-.3125.14-.4685.0518-.165.1047-.33.1636-.4941.0547-.1524.1151-.3044.176-.4563.07-.1748.1424-.3494.2207-.5235.0674-.15.139-.2988.2124-.4478q.1284-.2607.2683-.52c.0767-.1413.1568-.282.239-.4227.1207-.2064.2485-.4117.3811-.6164.0849-.131.1692-.2622.2589-.3925.1472-.2137.3047-.4255.4649-.637.0868-.1144.17-.23.26-.3433q.4317-.5424.92-1.0736c.0673-.073.1413-.1444.21-.217q.4058-.4273.8491-.8459.1962-.1851.3993-.3683.2582-.2325.5285-.4617.2369-.2012.4825-.4c.1873-.1511.3795-.3009.5747-.45.1708-.13.3434-.26.52-.3888.2026-.1472.411-.2926.6215-.4374.1836-.1261.368-.252.5576-.3762.2177-.1427.4421-.2832.6678-.4233.271-.1681.5387-.3373.8212-.5015.7531-.4377,1.5393-.8433,2.3394-1.2336.224-.1093.4517-.2144.6791-.32q.9714-.4509,1.9813-.8569c.189-.0759.374-.1568.5648-.23q1.242-.4786,2.5337-.889c.7458-.2379,1.51-.4457,2.276-.65.2962-.079.5841-.1723.883-.2463q1.6076-.3973,3.26-.6987c.9329-.17,1.8763-.3092,2.8237-.4321.255-.0331.5109-.0617.7666-.0914.9014-.1045,1.8056-.1969,2.7138-.2594.0292-.0019.0582-.0053.0873-.0072.8469-.057,1.696-.0812,2.5447-.1015.6268-.0149,1.2528-.014,1.8787-.0089.5033.0041,1.0066.0062,1.5084.0233.5637.0191,1.1244.0546,1.6853.09.5247.0333,1.0493.0649,1.57.1125.5446.05,1.0838.1161,1.6235.1814.5192.0628,1.0386.1241,1.5523.2015.5734.0864,1.1381.1917,1.7035.2962.5477.1011,1.0986.1956,1.6374.3137.1587.0349.3168.071.4747.1072q1.3122.3015,2.584.6688c.1719.05.3392.1065.51.1584q1.0779.3281,2.1178.7066c.204.0741.41.1463.6114.2233.6077.232,1.1946.4877,1.7792.7458.2769.1224.5626.2348.8339.363.8257.39,1.63.8027,2.4,1.2472,6.3578,3.6706,9.5131,8.52,9.4991,13.4339l.1156-40.7581C522.2242,375.9728,519.069,371.123,512.7112,367.4524Z" transform="translate(-242.8169 -215.8389)"/><g class="cls-4"><path class="cls-5" d="M559.1841,380.0714l-.1155,40.7581c-.03,10.7249-7.28,21.5952-21.6686,29.9567-28.17,16.3706-73.0325,16.9237-100.1992,1.239-13.295-7.6759-19.8916-17.8173-19.8625-28.0915l.1155-40.7581c-.0291,10.2742,6.5676,20.4156,19.8626,28.0915,27.1667,15.6847,72.0292,15.1316,100.1992-1.239C551.9036,401.6666,559.1537,390.7963,559.1841,380.0714Z" transform="translate(-242.8169 -215.8389)"/><g class="cls-8"><path class="cls-1" d="M559.174,380.7026a24.4088,24.4088,0,0,1-.4695,4.0918,26.2984,26.2984,0,0,1-1.1706,4.0733,29.6234,29.6234,0,0,1-1.9438,4.1472,34.86,34.86,0,0,1-2.9813,4.4263A43.0234,43.0234,0,0,1,548,402.3994a58.33,58.33,0,0,1-9.5547,7.0788q-.46.2767-.93.55a85.07,85.07,0,0,1-16.505,7.2585,107.3461,107.3461,0,0,1-13.9554,3.48c-3.096.56-6.2373.9973-9.4007,1.3113q-3.9381.3909-7.9088.5271-3.6411.1249-7.2768.0346-3.4567-.0863-6.8811-.3679-3.3873-.2792-6.7164-.75-3.4229-.4853-6.7565-1.1746-3.6012-.7459-7.0638-1.731c-2.7919-.7957-5.5044-1.7087-8.116-2.7391a72.3334,72.3334,0,0,1-9.6187-4.61c-13.295-7.6759-19.8917-17.8173-19.8625-28.0915l-.1156,40.7581c-.0291,10.2742,6.5675,20.4156,19.8625,28.0915a72.333,72.333,0,0,0,9.6187,4.61c2.6117,1.03,5.3241,1.9434,8.116,2.7392q3.4566.9851,7.0639,1.7309,3.3288.6894,6.7565,1.1746,3.3247.4715,6.7163.75,3.42.2817,6.8812.3678,3.63.09,7.2768-.0345,3.9639-.136,7.9088-.5271c3.1634-.314,6.3047-.7512,9.4007-1.3112a107.3625,107.3625,0,0,0,13.9554-3.48A85.0632,85.0632,0,0,0,537.4,450.7862q.47-.2731.93-.55a58.33,58.33,0,0,0,9.5547-7.0788,43.0322,43.0322,0,0,0,4.6086-4.9582,34.859,34.859,0,0,0,2.9812-4.4263,29.6181,29.6181,0,0,0,1.9438-4.1472,26.2874,26.2874,0,0,0,1.1706-4.0733,24.4194,24.4194,0,0,0,.47-4.0917q.0092-.3158.01-.6313l.1155-40.7581Q559.1832,380.3869,559.174,380.7026Z" transform="translate(-242.8169 -215.8389)"/></g><path class="cls-7" d="M559.1841,380.0714l-.1155,40.7581c-.03,10.7249-7.28,21.5952-21.6686,29.9567-28.17,16.3706-73.0325,16.9237-100.1992,1.239-13.295-7.6759-19.8916-17.8173-19.8625-28.0915l.1155-40.7581c-.0291,10.2742,6.5676,20.4156,19.8626,28.0915,27.1667,15.6847,72.0292,15.1316,100.1992-1.239C551.9036,401.6666,559.1537,390.7963,559.1841,380.0714Z" transform="translate(-242.8169 -215.8389)"/></g><path class="cls-2" d="M539.3271,351.9849c27.1667,15.6847,26.3585,41.6726-1.8115,58.0432s-73.0325,16.9237-100.1992,1.239c-27.1731-15.6884-26.3648-41.6762,1.8052-58.0468S512.154,336.2965,539.3271,351.9849ZM463.926,395.8033c12.9928,7.5014,34.45,7.2358,47.9232-.5937s13.8548-20.2558.862-27.7572c-12.9991-7.5051-34.45-7.2433-47.9233.5863s-13.861,20.26-.8619,27.7646" transform="translate(-242.8169 -215.8389)"/><path class="cls-9" d="M563.1818,379.6387c-.1538-12.0226-7.9026-23.0622-21.8546-31.1176-9.2048-5.3144-20.597-8.9935-33.1969-10.7471q.0324-.0669.0635-.1338c.1388-.2974.2609-.5847.3709-.87q.0237-.0568.0449-.113l.0322-.0857.013-.0416c.0925-.2558.1752-.51.25-.7649l.0453-.1552c.0683-.2447.1269-.4852.1789-.7265.0181-.07.0337-.1373.0471-.204l.0183-.0912.0119-.0828c.038-.2082.0688-.412.0959-.6165.02-.1448.0345-.26.0464-.375.02-.1979.0324-.3925.0428-.5873.0094-.1006.0166-.2026.02-.3042l.0011-.039,0-.039,0-.09c.0022-.0486.0035-.0966.0036-.1448l.1153-40.6167,0-.1388.0015-.4689-.01-.0322c-.1865-5.0586-3.4058-9.6336-9.1113-12.9271-5.1463-2.9705-11.9223-4.6064-19.08-4.6064-7.1618,0-13.924,1.6383-19.0409,4.613-5.6062,3.2569-8.78,7.7786-8.9857,12.7741l-.0115.0373-.0009.4531-.0324,11.3862a36.24,36.24,0,0,0-14.4139-2.82,34.1956,34.1956,0,0,0-16.9223,4.1055l-76.7795,44.6192.0587-20.0656.0014-.4518-.0081-.0266a14.4641,14.4641,0,0,0-.56-3.56l53.1515-30.8882.0289-.0168.0286-.0175.7236-.4424c.2233-.1381.4317-.2689.6347-.4007.2061-.1354.3927-.2636.5732-.3887.1851-.1266.3829-.2654.5785-.4064.19-.138.3664-.2716.5376-.4031.1771-.1341.37-.2848.555-.4344.1685-.1359.335-.2752.4968-.4135.158-.133.3285-.2814.5616-.4888l.1119-.0986.02-.0175.02-.0179c.07-.0637.1359-.1276.2456-.2391.2747-.2606.5382-.5235.7927-.7914l.2189-.2275.0246-.0256.0239-.026c.3556-.3877.6724-.7573.9971-1.1632.0758-.0968.1314-.1714.2417-.3258.1772-.234.35-.4684.5109-.7035l.018-.0262.0174-.0266.2276-.3477c.1551-.2416.2921-.46.441-.7129.0408-.0674.1017-.1688.114-.1907.0395-.0694.0834-.1514.1675-.3186.1011-.1879.1992-.3776.29-.564.0736-.1479.1548-.3234.2328-.4977.0831-.1862.1626-.3737.2584-.61.0423-.0976.083-.1963.1183-.2917l.0163-.0438.0149-.0443.0678-.2021c.0537-.1521.1165-.3429.1764-.5348.0571-.1836.1109-.3657.1595-.5465.05-.1841.0961-.3758.1617-.6584l.0107-.0462.0093-.0465.0718-.36c.0466-.25.0776-.4574.1065-.6648.0258-.1825.05-.3655.0687-.5521.0192-.1927.032-.3816.0493-.6546.01-.1176.0174-.2365.0207-.3553l.001-.0367,0-.0368.12-41.0478.0013-.4517-.008-.0262c-.18-6.0073-4.0349-11.4743-10.8985-15.4375l-8.5553-4.94a4,4,0,0,0-4.02.0124L245.2092,297.7238l-.0136.0044-.2914.1724-.0117.0069-.2061.1178-.0161.0138-.0059.0036-.0833.0729a3.9,3.9,0,0,0-.4859.4135,3.4931,3.4931,0,0,0-.3634.4315,3.2354,3.2354,0,0,0-.2608.3833,3.4983,3.4983,0,0,0-.2435.5144,3.2413,3.2413,0,0,0-.1548.44,3.3846,3.3846,0,0,0-.1.5327,3.3116,3.3116,0,0,0-.0409.5047l-.1152,40.7593a4.0127,4.0127,0,0,0,1.9958,3.4733l77.0159,44.4653a4.0012,4.0012,0,0,0,3.0283.4013l.279-.0742.1019-.0492a3.9188,3.9188,0,0,0,.5869-.2755l.0231-.0133.0229-.0137.0316-.019,8.4316-4.8991.0289-.0167.0286-.0175.7285-.4453c.2235-.1383.4316-.269.6344-.4006.2063-.1355.3928-.2636.5732-.3885.1861-.1268.3909-.2695.5932-.4165l.0559-.0411-.0371,13.0721a4.0124,4.0124,0,0,0,1.9957,3.4732l29.9481,17.2915a4.0012,4.0012,0,0,0,3.9956.0027l.2546-.1465.0106-.0093,40.28-23.4077-.0856,30.2815c-.0349,12.1966,7.7292,23.4075,21.8622,31.5674.7874.4543,1.6395.9217,2.5337,1.39.1953.1022.3935.2007.5918.2988l.3115.1554c.5824.2949,1.1663.5889,1.7646.8726.2.0945.4.1852.6.2756l.2829.1284c.6378.2929,1.2821.583,1.9379.8634.1585.0675.3148.1318.4711.1961l.2172.09.4021.169c.3435.1449.687.29,1.037.4276.133.0525.27.1017.408.15.0646.0228.1293.0453.1921.0694.763.2938,1.5705.5887,2.5435.9291.77.27,1.5941.544,2.5907.8609l.18.0571c.51.1618,1.02.3233,1.536.4762.1271.0378.2559.0794.3848.1208.216.0694.432.1382.6527.2012.35.1.7064.1918,1.0628.2837l.5527.1441.084.0223.05.0132c2.0575.5458,3.8892.9833,5.6,1.3375,2.2774.472,4.6348.8819,7.0061,1.2181,2.2715.3223,4.6095.5839,6.9487.7774,2.3656.1939,4.7579.3215,7.112.3793,1.0375.0259,2.097.039,3.1484.039,1.452,0,2.92-.0252,4.3646-.075,2.7225-.093,5.4705-.2761,8.1667-.5442,3.253-.3222,6.5222-.7778,9.7159-1.3543a112.7247,112.7247,0,0,0,12.9909-3.1588l.0508-.0155.0886-.027c.1653-.0511.3294-.1.4935-.1488.2862-.0853.5724-.1709.8534-.2619,2.76-.8942,5.5054-1.9228,8.1611-3.0573l.0921-.039.1475-.0627c1.081-.4655,2.0541-.9046,2.9769-1.3431l.0227-.0108.0485-.0239c.8122-.3866,1.6728-.8166,2.6123-1.3054.2-.1042.4015-.2093.6017-.3155,1.0173-.54,1.8491-1,2.6186-1.4474.3294-.1909.658-.3858.9835-.5818.17-.1022.3341-.2077.498-.3135.09-.0582.18-.1165.2721-.1736.5239-.324,1.0438-.6507,1.5508-.9826.3569-.2339.7048-.4694,1.0516-.7063.561-.3822,1.1137-.77,1.6533-1.1623.2682-.1955.53-.39.79-.5861.602-.4524,1.2053-.9242,1.791-1.4.1933-.1574.3563-.29.5169-.4243.649-.54,1.2987-1.1072,1.9289-1.6836.0585-.05.1074-.0927.1542-.136l.1106-.1055c5.6627-5.2485,9.436-11.05,11.2077-17.2385l.0233-.0768c.18-.6376.339-1.2873.4881-1.9978.0311-.1128.0587-.2249.081-.3363.0155-.0773.0279-.1528.0387-.2283.109-.579.1872-1.1325.2437-1.5543l.0233-.1689c.0329-.2364.0652-.4723.09-.7094.0448-.4385.0709-.872.0955-1.3059.0038-.0657.01-.1357.0165-.2057.0173-.1973.0329-.3946.0386-.5909.0072-.2467.0109-.492.0116-.7373l.1157-40.7562.0012-.4316Zm-4.5.6362.0015.0039-.1152,40.55q-.0008.3077-.01.6162c-.0029.11-.0137.2217-.0234.333l-.0264.34c-.02.3662-.0415.7324-.0786,1.0947-.0191.1865-.0454.3721-.0713.5576l-.0264.1895c-.06.4541-.1264.9062-.2119,1.3505l-.0415.2217c-.019.0723-.0376.1436-.0532.2188-.1187.5644-.253,1.1269-.4336,1.7607-1.542,5.3867-4.8892,10.4942-9.957,15.1914l-.209.19q-.865.7925-1.7915,1.5644l-.4737.3887q-.8071.6563-1.66,1.2978c-.24.1817-.4829.3614-.731.542q-.7528.548-1.5439,1.085c-.3233.2217-.6475.44-.9766.6562-.4746.3106-.9614.6172-1.456.9219l-.3453.2207c-.124.08-.2475.16-.3759.2373-.3047.1836-.6119.3653-.9244.5469-.8041.4668-1.63.9189-2.4677,1.3633l-.5679.2978c-.8169.4248-1.644.8408-2.5386,1.2676-.9233.4385-1.8662.8623-2.82,1.2725l-.2329.0986c-2.5347,1.083-5.1523,2.0635-7.7788,2.9141-.25.081-.5034.1562-.7573.2324l-.6661.2012a108.0106,108.0106,0,0,1-12.4677,3.0312c-3.0762.5557-6.2256.9941-9.3618,1.3057-2.5992.2578-5.2491.4345-7.8765.5244-2.4028.083-4.8521.0947-7.2476.0342-2.2685-.0557-4.5742-.1787-6.8515-.3653-2.252-.1855-4.502-.4375-6.688-.748-2.2769-.3223-4.54-.7158-6.7256-1.169-1.626-.3369-3.3784-.7558-5.3579-1.2812l-.7-.1826c-.3257-.083-.6509-.167-.9683-.2578-.1709-.0489-.3384-.1026-.5058-.1563-.1622-.0518-.3238-.1045-.49-.1533-.4941-.1465-.9819-.3008-1.47-.4561l-.16-.0508c-.8325-.2646-1.6548-.5341-2.4687-.82-.8116-.2832-1.6167-.5742-2.4151-.8818l-.2978-.1084c-.0894-.0312-.1787-.0625-.2642-.0967-.3247-.1279-.643-.2627-.9619-.3965l-1.05-.4384c-.6186-.2637-1.2266-.5381-1.83-.8145l-.3252-.1484c-.1689-.0762-.3379-.1524-.5058-.2325-.563-.2666-1.1123-.5439-1.6582-.8193l-.3633-.1816c-.1631-.0811-.3257-.1612-.4863-.2461-.8077-.4229-1.6006-.8555-2.3716-1.3-12.6773-7.3194-19.6426-17.1416-19.6123-27.6582l.1079-38.127-47.065,27.3516L341.44,396.16l.0718-25.2061-2.9585,4.54c-.1308.191-.27.378-.4282.5865l-.1265.1748c-.2739.3423-.53.64-.7749.9077l-.2431.2524q-.3157.3326-.6607.6577l-.2461.233c-.2065.1835-.353.31-.5.436-.1313.1123-.2666.2251-.4121.3423-.1436.1172-.2988.2363-.4561.3569q-.2167.1662-.4326.3252c-.1645.12-.3315.2358-.51.3569-.1509.1045-.3067.2119-.46.3125-.1758.1143-.3569.2281-.5313.336l-8.9428,5.2212-76.5122-44.1748.1133-40.1812,139.7626-81.22,8.3038,4.7939c5.5752,3.22,8.6494,7.4688,8.6567,11.8975l-.0029.062,0,.2666,0,0-.1191,40.79-.0127.1871c-.0137.2094-.022.3535-.0366.4975-.0127.1265-.03.25-.0474.377-.02.1425-.0405.2846-.0635.4091l-.0615.3135c-.05.2149-.084.3609-.1245.5093-.0337.125-.0708.25-.11.3755-.0439.1411-.09.2817-.1459.4414l-.1094.292c-.0786.1958-.1421.3472-.209.4966-.0532.1191-.1084.2392-.1733.3706-.0684.1411-.1436.2846-.2437.4707l-.15.2729c-.12.2036-.23.3784-.334.5415l-.21.3208c-.1289.1885-.2686.3755-.438.6l-.1172.1626c-.272.34-.5283.6367-.7744.9063l-.2383.2475c-.2124.2237-.4331.4429-.7075.7036l-.211.1983c-.1963.1748-.3393.3-.4931.4292-.13.1113-.2637.2231-.4029.3354-.1489.12-.3037.2412-.4682.3662-.14.107-.2827.2159-.4253.3194-.167.12-.3355.2383-.5122.3594-.1509.1044-.3067.2119-.4595.3125-.1763.1142-.3574.228-.5317.3359l-57.273,33.3047.6255,1.2583a10.3263,10.3263,0,0,1,1.13,4.5586l-.003.062.0005.2666,0,0-.0815,27.69L424.186,307.959c8.0655-4.69,21.2325-4.69,29.3516-.0039a17.5242,17.5242,0,0,1,1.8057,1.2109l2.3945,1.8037.0571-19.5771c.0132-3.5186,2.4131-6.8462,6.7578-9.37,9.2325-5.3672,24.3106-5.3677,33.6094,0,4.4248,2.5542,6.8648,5.9209,6.8721,9.3931l-.0039.0674,0,.3052-.1138,40.4624-.0195.4365c-.0064.1245-.0132.248-.0254.3682l-.0313.2441c-.0185.1431-.04.2852-.0727.4722l-.0308.1284c-.0347.166-.0747.3306-.1177.4849l-.0332.1142c-.0478.1616-.1.3228-.1782.5444l-.0293.0723c-.0767.2026-.1611.4028-.2612.6172-.0825.1763-.1709.3511-.2866.563l-.0459.082a11.47,11.47,0,0,1-1.606,2.1655c-.1675.18-.3408.3575-.523.5323l-2.3554,2.2646,3.2529.31c14.0054,1.3349,26.6348,5.0581,36.5234,10.7671,12.6182,7.2856,19.58,17.0591,19.607,27.5254l-.0034.0678ZM247.2764,301.7334l-.0225.0278.021-.0273Z" transform="translate(-242.8169 -215.8389)"/><path class="cls-9" d="M461.896,339.8486l-2.4419-2.0034-.0215,7.4976,1.8848-.4927c.8252-.2158,1.6538-.4248,2.4888-.6216l3.5937-.8476-3.1665-1.899A19.5315,19.5315,0,0,1,461.896,339.8486Z" transform="translate(-242.8169 -215.8389)"/><path class="cls-10" d="M710.8475,363.87l-.5,40.3945c-.0448,3.6193-2.4212,7.2114-7.1252,9.9273-9.4493,5.4555-24.7219,5.3025-34.1089-.3418-4.718-2.8369-7.0519-6.5214-7.0067-10.1776l.5-40.3945c-.0452,3.6562,2.2887,7.3407,7.0067,10.1776,9.387,5.6443,24.66,5.7973,34.1089.3418C708.4263,371.0816,710.8027,367.49,710.8475,363.87Z" transform="translate(-242.8169 -215.8389)"/><g class="cls-11"><path class="cls-2" d="M710.8377,364.1849a8.5575,8.5575,0,0,1-.1985,1.4515,9.1294,9.1294,0,0,1-.4478,1.4274,10.2311,10.2311,0,0,1-.7338,1.4578,12,12,0,0,1-1.11,1.5362,14.92,14.92,0,0,1-1.8274,1.803,19.7731,19.7731,0,0,1-2.7977,1.9367,29.27,29.27,0,0,1-8.4927,3.1517c-1.1286.2409-2.2826.43-3.4514.5676-.943.1109-1.8956.1882-2.8524.2318q-1.2978.0591-2.6017.0359-1.239-.0219-2.4728-.1185-1.2233-.0958-2.4308-.2651-1.2471-.1749-2.4664-.4282-1.3266-.276-2.6063-.6449A31.5189,31.5189,0,0,1,673.35,375.3a26.1882,26.1882,0,0,1-3.7363-1.8442c-4.718-2.8369-7.0519-6.5214-7.0067-10.1776l-.5,40.3945c-.0452,3.6562,2.2887,7.3407,7.0067,10.1776a26.1881,26.1881,0,0,0,3.7363,1.8442,31.5569,31.5569,0,0,0,2.9982,1.028q1.2772.3687,2.6063.6448,1.2174.2532,2.4664.4282,1.2059.1692,2.4308.265,1.2319.0966,2.4728.1187,1.3018.0231,2.6017-.036c.9568-.0437,1.9094-.1209,2.8524-.2318,1.1688-.1375,2.3228-.3266,3.4515-.5677a29.27,29.27,0,0,0,8.4925-3.1516,19.7628,19.7628,0,0,0,2.7978-1.9367,14.921,14.921,0,0,0,1.8275-1.803,11.9989,11.9989,0,0,0,1.11-1.5362,10.2416,10.2416,0,0,0,.7338-1.4578,9.1372,9.1372,0,0,0,.4479-1.4274,8.566,8.566,0,0,0,.1984-1.4515q.0078-.1574.01-.3147l.5-40.3945Q710.8454,364.0277,710.8377,364.1849Z" transform="translate(-242.8169 -215.8389)"/></g><path class="cls-7" d="M710.8475,363.87l-.5,40.3945c-.0448,3.6193-2.4212,7.2114-7.1252,9.9273-9.4493,5.4555-24.7219,5.3025-34.1089-.3418-4.718-2.8369-7.0519-6.5214-7.0067-10.1776l.5-40.3945c-.0452,3.6562,2.2887,7.3407,7.0067,10.1776,9.387,5.6443,24.66,5.7973,34.1089.3418C708.4263,371.0816,710.8027,367.49,710.8475,363.87Z" transform="translate(-242.8169 -215.8389)"/><path class="cls-1" d="M669.7262,353.356c9.4557-5.4593,24.7284-5.3063,34.1154.338s9.3364,14.6442-.1193,20.1035C694.273,379.253,679,379.1,669.6134,373.4557S660.2769,358.8115,669.7262,353.356Z" transform="translate(-242.8169 -215.8389)"/><path class="cls-10" d="M936.9475,293.33l.5-40.3945a9.7844,9.7844,0,0,0,.4371,2.997l-.5,40.3945A9.7844,9.7844,0,0,1,936.9475,293.33Z" transform="translate(-242.8169 -215.8389)"/><g class="cls-12"><g class="cls-4"><path class="cls-2" d="M937.8841,255.9325l-.5,40.3945a9.7844,9.7844,0,0,1-.4371-2.997l.5-40.3945a9.7844,9.7844,0,0,0,.4371,2.997" transform="translate(-242.8169 -215.8389)"/></g></g><path class="cls-7" d="M936.9475,293.33l.5-40.3945a9.7844,9.7844,0,0,0,.4371,2.997l-.5,40.3945A9.7844,9.7844,0,0,1,936.9475,293.33Z" transform="translate(-242.8169 -215.8389)"/><path class="cls-2" d="M977.1474,283.56a17.689,17.689,0,0,0-1.8272-1.0009c-.7568-.401-1.5411-.7722-2.3377-1.1289-.2321-.1039-.4679-.2025-.7031-.3027-.2832-.1206-.56-.2494-.8471-.3646-.3132-.1255-.6376-.2353-.9556-.3543-.2659-.1-.5294-.201-.7984-.296q-1.1424-.4032-2.3184-.753c-.0915-.0271-.18-.059-.2719-.0857-.0166-.0048-.0324-.0106-.0489-.0154-.8385-.242-1.6921-.4556-2.5515-.6562-.2043-.0476-.4083-.0943-.6136-.14-.2106-.0465-.4185-.0993-.63-.1433-.6533-.136-1.312-.2573-1.9736-.37-.1167-.02-.2343-.036-.3513-.0551-.4116-.0672-.8227-.1359-1.2367-.194-.2351-.033-.4737-.0474-.7094-.0774q-.9724-.1239-1.95-.2128c-.2706-.0251-.5384-.0671-.8094-.0883-.185-.0146-.3708-.014-.556-.0267-.6686-.046-1.3366-.0737-2.0062-.0964-.3085-.01-.6166-.0389-.925-.0444-.1967-.0035-.3929,0-.59-.0012-.1746-.0013-.3484-.0014-.5229-.0011-.8345.0012-1.6679.0141-2.4974.0518-.0679.0031-.1351.0094-.203.0128-.1442.0071-.287.019-.4311.0272q-1.2078.0687-2.4019.19c-.1821.0184-.3645.0342-.5461.0543-.1141.0127-.23.0207-.3434.0341q-1.2216.1437-2.4221.3438c-.1168.0193-.23.0453-.3469.0654-.6386.11-1.2754.2248-1.9021.3586-.1173.0251-.2287.06-.3456.0861-.5737.127-1.1339.2753-1.696.4223-.4175.1091-.8392.21-1.25.33-.5774.1691-1.1363.3627-1.698.5536-.3743.1272-.7565.2431-1.1233.38-.61.2276-1.1951.4834-1.782.7379-.296.1283-.6039.2425-.8935.3776-.8642.403-1.7024.8338-2.506,1.2977-.6343.3663-1.2282.7477-1.7988,1.1371-.0795.0543-.162.1073-.24.162-.5339.373-1.0354.7568-1.5118,1.1485-.0447.0368-.0977.0709-.1419.1079-.0507.0423-.0931.0872-.1431.13-.4011.3411-.7885.6862-1.1468,1.04l-.022.023c-.3517.3481-.6758.7033-.9862,1.062-.04.0462-.0876.09-.1268.1366-.0476.0561-.0871.1141-.1336.17-.1747.2115-.3408.4249-.5013.64-.0791.1057-.1607.2107-.2363.3171q-.2907.4092-.5467.8254c-.0256.0412-.0564.0815-.0813.1228l-.0111.02q-.2764.459-.5116.9253c-.0413.0818-.0751.1647-.1145.2468-.1105.23-.2182.46-.314.6924-.01.0242-.0229.048-.0327.0723-.0406.1-.0706.2013-.1084.3017-.07.1869-.1408.3737-.2017.5619-.043.1327-.0789.2661-.1172.3993-.0523.1821-.1037.3644-.1472.5476-.0113.0477-.0276.0949-.0384.1427-.02.088-.03.1768-.0478.265-.0372.1852-.0719.37-.1.5562-.0211.1387-.0383.2775-.0545.4165q-.0321.2762-.0514.5531c-.005.0732-.0167.1462-.02.22q-.0109.2187-.0136.4379l-.5,40.3945c.0027-.22.019-.4387.034-.6579q.019-.2765.0514-.5522c.0161-.1394.0335-.2786.0547-.4177.0281-.1848.0628-.3692.1-.5535.0276-.137.0544-.274.0868-.4106.0434-.1824.0947-.3641.1468-.5456.0383-.1337.0744-.2676.1175-.4007.0608-.1876.1311-.374.2013-.56.047-.125.09-.2506.1414-.375.0958-.2323.2038-.4627.3143-.6928.0394-.0819.073-.1648.1142-.2463q.2355-.4663.5118-.9257c.0285-.0474.0621-.0938.0913-.1411q.2574-.4167.5477-.8269c.0756-.1064.1572-.2114.2362-.3171.1605-.2146.3266-.428.5012-.6395.0849-.1028.1722-.205.26-.3069.31-.3588.6347-.7142.9865-1.0622l.0219-.0229c.3584-.3533.7458-.6986,1.1469-1.04.0934-.0794.1887-.1583.2844-.237.4763-.3916.9777-.7755,1.5115-1.1484.0789-.0551.1621-.1087.2422-.1634.57-.3891,1.1637-.77,1.7975-1.1362.8036-.464,1.6421-.8947,2.5063-1.2978.2885-.1346.5955-.2484.89-.3763.5879-.2549,1.1746-.5112,1.7853-.7392.3663-.1367.7483-.2526,1.1221-.38.5619-.1909,1.1215-.3848,1.699-.5538.4105-.12.8329-.2215,1.2505-.3307.5611-.1466,1.1211-.2949,1.6939-.4218.7439-.1647,1.4956-.3151,2.2564-.4464.1135-.02.2242-.0449.338-.0637.9126-.1511,1.837-.2749,2.7681-.3783.18-.02.3621-.0356.5431-.0538q1.1962-.1209,2.4064-.19c.1425-.0082.2841-.02.4268-.027.8977-.0441,1.8-.0633,2.7033-.0647.1736,0,.3471,0,.5208.0011.5048.0038,1.01.0285,1.5151.0456.6691.0226,1.338.05,2.0062.0964.4561.0313.9108.0729,1.3658.1151q.9767.09,1.9478.2125c.6515.0831,1.3028.1664,1.9485.2718.1165.019.2339.0352.35.055.8761.1488,1.7436.323,2.6045.5131q.3072.0678.6127.1393c.8769.2047,1.7474.4244,2.6024.6722.088.0255.1728.0561.26.082q1.1826.35,2.33.7568c.2674.0943.53.1955.7941.2944q.9168.3429,1.8072.7208c.234.1.4691.1979.7.3013.7968.3568,1.5816.7283,2.3388,1.1294a17.6786,17.6786,0,0,1,1.8272,1.0009c6.9516,4.18,10.4013,9.5569,10.3365,14.7972l.4995-40.3945C987.5486,293.1166,984.0989,287.74,977.1474,283.56Z" transform="translate(-242.8169 -215.8389)"/><path class="cls-10" d="M1030.12,324.4042l-.5,40.3945c.06-4.8783-2.694-9.7925-8.2642-13.8117l.5-40.3945C1027.4255,314.6117,1030.18,319.5259,1030.12,324.4042Z" transform="translate(-242.8169 -215.8389)"/><g class="cls-13"><g class="cls-4"><path class="cls-2" d="M1030.12,324.4042l-.5,40.3945c.06-4.8783-2.694-9.7925-8.2642-13.8117l.5-40.3945c5.57,4.0192,8.3245,8.9334,8.2642,13.8117" transform="translate(-242.8169 -215.8389)"/></g></g><path class="cls-7" d="M1030.12,324.4042l-.5,40.3945c.06-4.8783-2.694-9.7925-8.2642-13.8117l.5-40.3945C1027.4255,314.6117,1030.18,319.5259,1030.12,324.4042Z" transform="translate(-242.8169 -215.8389)"/><path class="cls-10" d="M882.258,334.88l.5-40.3944c-.1363,11.0286,7.111,22.314,21.6623,31.0635a85.3872,85.3872,0,0,0,19.4834,8.4869A117.7022,117.7022,0,0,0,967.8849,338.5c13.5682-1.1729,26.38-4.7121,36.7356-10.6911,8.4661-4.8878,14.2588-10.8338,17.2348-17.2168l-.5,40.3945c-2.976,6.383-8.7687,12.3289-17.2348,17.2168-10.3558,5.979-23.1673,9.5182-36.7355,10.6911a117.7026,117.7026,0,0,1-43.9818-4.4646,85.3954,85.3954,0,0,1-19.4834-8.4869C889.3691,357.1939,882.1217,345.9085,882.258,334.88Z" transform="translate(-242.8169 -215.8389)"/><g class="cls-14"><path class="cls-2" d="M1020.4154,313.2869a32.8007,32.8007,0,0,1-3.0416,4.2136,40.9714,40.9714,0,0,1-4.9766,4.9187,54.5109,54.5109,0,0,1-7.7767,5.39,81.0759,81.0759,0,0,1-23.6367,8.76c-3.152.67-6.3827,1.1972-9.6674,1.5823q-1.7065.2-3.4314.3492-2.4176.2111-4.8574.3216-3.7624.1705-7.5527.1028-3.6425-.0651-7.28-.35t-7.2425-.79q-3.7555-.5268-7.4408-1.2917-4.0449-.8406-7.9621-1.9678-.8268-.2383-1.6466-.4894-3.987-1.1934-7.7713-2.7056a81.3573,81.3573,0,0,1-11.712-5.7813c-14.5513-8.75-21.7986-20.0349-21.6623-31.0635l-.4994,40.3944c-.1364,11.0287,7.111,22.314,21.6622,31.0636a81.3481,81.3481,0,0,0,11.7121,5.7813q3.7764,1.51,7.7713,2.7055.82.2512,1.6465.4895,3.91,1.127,7.9621,1.9679,3.6795.7645,7.4409,1.2915,3.5989.5048,7.2424.79,3.6326.2847,7.28.35,3.7848.0676,7.5528-.1029,2.4384-.1106,4.8574-.3216,1.7246-.1489,3.4314-.3491c3.2847-.3851,6.5154-.9122,9.6674-1.5823a81.08,81.08,0,0,0,23.6368-8.76,54.53,54.53,0,0,0,7.7766-5.39,40.9786,40.9786,0,0,0,4.9766-4.9187,32.821,32.821,0,0,0,3.0417-4.2136,28.5066,28.5066,0,0,0,1.44-2.6945l.4994-40.3944A28.4943,28.4943,0,0,1,1020.4154,313.2869Z" transform="translate(-242.8169 -215.8389)"/></g><path class="cls-7" d="M882.258,334.88l.5-40.3944c-.1363,11.0286,7.111,22.314,21.6623,31.0635a85.3872,85.3872,0,0,0,19.4834,8.4869A117.7022,117.7022,0,0,0,967.8849,338.5c13.5682-1.1729,26.38-4.7121,36.7356-10.6911,8.4661-4.8878,14.2588-10.8338,17.2348-17.2168l-.5,40.3945c-2.976,6.383-8.7687,12.3289-17.2348,17.2168-10.3558,5.979-23.1673,9.5182-36.7355,10.6911a117.7026,117.7026,0,0,1-43.9818-4.4646,85.3954,85.3954,0,0,1-19.4834-8.4869C889.3691,357.1939,882.1217,345.9085,882.258,334.88Z" transform="translate(-242.8169 -215.8389)"/><path class="cls-10" d="M1066.35,324.8347l-.5,40.3945c-.1342,10.8527-7.2616,21.6213-21.3672,29.7652-17.5005,10.1039-41.66,13.7807-64.2052,11.1659l.5-40.3945c22.5456,2.6148,46.7047-1.062,64.2052-11.1659C1059.0888,346.456,1066.2162,335.6874,1066.35,324.8347Z" transform="translate(-242.8169 -215.8389)"/><g class="cls-15"><path class="cls-2" d="M1066.321,325.7781a25.6419,25.6419,0,0,1-.5947,4.3511,27.373,27.373,0,0,1-1.3425,4.2787,30.6783,30.6783,0,0,1-2.2,4.37,35.9711,35.9711,0,0,1-3.3281,4.6055,44.75,44.75,0,0,1-5.48,5.4071,59.3064,59.3064,0,0,1-8.3925,5.8093,87.8053,87.8053,0,0,1-25.5267,9.4617c-3.38.72-6.8357,1.2847-10.3357,1.6955-2.8369.3331-5.7031.5649-8.5816.6955q-3.8982.1771-7.8142.1073-3.7334-.0665-7.45-.3576-2.2566-.1768-4.4967-.4365l-.5,40.3945q2.2389.26,4.4967.4366,3.7115.2908,7.45.3575,3.91.07,7.8141-.1072c2.8785-.1308,5.7447-.3625,8.5818-.6955,3.5-.4109,6.9554-.9759,10.3355-1.6956a87.8007,87.8007,0,0,0,25.5266-9.4617,59.2858,59.2858,0,0,0,8.3927-5.8093,44.7547,44.7547,0,0,0,5.48-5.407,35.9869,35.9869,0,0,0,3.3282-4.6056,30.6783,30.6783,0,0,0,2.2-4.37,27.3836,27.3836,0,0,0,1.3425-4.2787,25.6416,25.6416,0,0,0,.5947-4.3512q.0237-.4715.0293-.9433l.5-40.3945Q1066.3444,325.3065,1066.321,325.7781Z" transform="translate(-242.8169 -215.8389)"/></g><path class="cls-7" d="M1066.35,324.8347l-.5,40.3945c-.1342,10.8527-7.2616,21.6213-21.3672,29.7652-17.5005,10.1039-41.66,13.7807-64.2052,11.1659l.5-40.3945c22.5456,2.6148,46.7047-1.062,64.2052-11.1659C1059.0888,346.456,1066.2162,335.6874,1066.35,324.8347Z" transform="translate(-242.8169 -215.8389)"/><path class="cls-1" d="M945.4925,241.7244l6.3208-3.6494,93.502,56.2218c28.18,16.9444,28.0285,43.9291-.3321,60.3031-17.5,10.1039-41.66,13.7807-64.2052,11.1659l2.9779-21.4549c12.2255,2.2114,26.0511.5386,35.7238-5.0459,13.344-7.7041,14.14-20.1842,2.3756-28.6725-2.976,6.383-8.7687,12.329-17.2348,17.2168-10.3558,5.979-23.1674,9.5182-36.7356,10.6911a117.7022,117.7022,0,0,1-43.9817-4.4646,85.3872,85.3872,0,0,1-19.4834-8.4869c-28.1736-16.94-28.967-43.3871-1.8-59.0718,9.9409-5.7394,22.2621-9.2349,35.2646-10.5446C936.3406,250.8955,938.8781,245.5432,945.4925,241.7244ZM986.4633,303.03c2.85-6.5567-.2651-14.0282-9.3159-19.47a17.6786,17.6786,0,0,0-1.8272-1.0009c-13.4769-7.14-33.65-7.2675-46.0938-.0831-11.6839,6.7457-12.5531,17.6162-2.8293,25.63a29.4746,29.4746,0,0,0,3.689,2.6246c8.1629,4.9083,19.1926,7.0026,29.5193,6.251a43.1422,43.1422,0,0,0,18.4081-5.1707c4.2777-2.47,7.114-5.5053,8.45-8.7808" transform="translate(-242.8169 -215.8389)"/><path class="cls-2" d="M908.5966,378.4868l-46.96-28.2367c-.7-.4211-1.4283-.8158-2.1783-1.1866-.253-.1251-.5217-.2317-.78-.3511-.5073-.2346-1.0117-.4725-1.5374-.6849-.0267-.0108-.0514-.0241-.0782-.0348-.6686-.2684-1.3543-.5139-2.0485-.7464-.1954-.0654-.3945-.1239-.5917-.1865-.331-.105-.658-.2164-.9938-.3133-.2643-.0764-.5337-.1432-.8008-.2145-.1466-.0392-.2917-.08-.4391-.1176-.6314-.1615-1.2674-.3138-1.9113-.4476-.0732-.0152-.1487-.0237-.222-.0386-.6915-.14-1.3909-.2552-2.0929-.3634-.203-.0312-.4015-.0765-.6051-.105-.0255-.0036-.0514-.0049-.0769-.0084q-1.37-.19-2.7555-.3008l-.0255-.0028c-.1487-.0117-.298-.0113-.4469-.0215-.7644-.0527-1.53-.0947-2.2949-.11-.0417-.0008-.0835-.0053-.1252-.006-.2479-.0044-.4938.0107-.7414.01-.656-.0014-1.3109.0011-1.9634.0271-.09.0036-.18,0-.27.0037-.2284.01-.4516.0413-.6792.0551-.6813.0412-1.3586.093-2.0316.1646-.1595.0169-.3228.02-.4817.039-.3413.04-.677.0946-1.0153.1424-.2089.03-.4187.0553-.6263.0879-.7305.1145-1.455.2422-2.1674.3938-.0277.0059-.054.0143-.0817.02-.4765.1025-.9383.23-1.4051.3489-.3534.09-.7139.1682-1.0611.268-.4837.1391-.9487.3041-1.4192.4618-.3132.105-.6362.1968-.943.31-.5115.1888-1,.4052-1.4919.6172-.2467.1062-.5054.1986-.7468.3106q-1.0845.5033-2.0938,1.0839c-.52.3-1.0069.613-1.4744.9324-.065.0444-.1324.0877-.1963.1324-.4378.3061-.8489.6212-1.2392.9427-.0365.03-.08.0579-.1159.0881-.0409.0343-.0752.0706-.1156.105-.3271.2786-.6429.56-.9351.849l-.0211.022c-.2856.2831-.549.5722-.8012.864-.0326.0377-.0716.0739-.1036.1118-.0394.0465-.0721.0945-.1106.1412-.14.17-.2736.3414-.4026.514-.0658.088-.1334.1754-.1963.264-.149.21-.2882.4219-.421.6352-.027.0434-.0593.0858-.0857.1293l-.0133.024q-.2273.3774-.4212.7608c-.0269.0532-.0485.1073-.0743.1607-.0984.2028-.193.4062-.2773.6111-.0075.0182-.0172.0361-.0246.0543-.033.0813-.0574.1637-.0882.2454-.0584.1552-.117.31-.1675.4665-.0351.1086-.0643.2176-.0955.3265-.0429.15-.0853.2993-.1209.45-.0091.0384-.0222.0764-.0309.1149-.0164.0729-.0249.1465-.04.2195-.03.1519-.0591.3039-.0822.4563-.0174.1137-.0315.2276-.0447.3416q-.0263.2272-.0422.455c-.0041.06-.0136.1192-.0166.1791q-.0089.1792-.0111.3588l-.5,40.3945c.0022-.1795.0155-.3585.0277-.5375q.0156-.2288.0424-.4568c.0131-.1131.0271-.2261.0443-.3389.0233-.1536.052-.3066.0829-.46.0222-.11.0436-.221.07-.3311.036-.1519.0788-.3031.1222-.4542.0308-.1074.06-.2151.0942-.3221.0506-.1568.1094-.3126.1681-.4684.0376-.1.0718-.2.1126-.2992.0843-.2046.1787-.4077.2769-.61.026-.0536.0476-.1078.0746-.1612q.1934-.3831.4208-.76c.0319-.053.0689-.1048.1018-.1575.1319-.2118.27-.4224.4181-.6309.0634-.0893.1317-.1776.198-.2663.1284-.1718.2613-.3426.4008-.5118.07-.085.1421-.17.2151-.2539.252-.2917.5154-.5807.8009-.8638l.0211-.022c.2923-.2886.6083-.5707.9355-.8493.0757-.0645.1529-.1284.2305-.1923.3907-.3219.8022-.6372,1.24-.9436.0634-.0444.13-.0874.1949-.1315.4678-.32.9549-.6325,1.4753-.9329q1.0071-.5815,2.0938-1.0839c.2426-.1125.5025-.2055.75-.3122.4908-.2113.9778-.4272,1.4879-.6155.3066-.1132.6294-.205.9424-.31.471-.1579.9365-.3231,1.4207-.4623.3447-.0991.703-.1764,1.0538-.2661.469-.12.9332-.2477,1.4119-.3507.7392-.1589,1.4905-.2952,2.2492-.4141.2073-.0325.4175-.0583.626-.0878.4956-.07.9954-.1281,1.497-.1814.6727-.0715,1.3509-.1234,2.0318-.1647.3164-.0192.6311-.0461.9488-.0587.654-.0261,1.3111-.0286,1.9686-.0271.287.0006.573-.01.86-.0042.7664.0156,1.5327.0577,2.2982.1105.1566.0108.3138.0118.47.0241q1.3838.1094,2.7552.3008c.23.0318.4549.0785.6836.1137.7013.1081,1.4006.2234,2.0913.3632q1.0773.2183,2.1336.4861c.147.0376.2924.0784.4387.1175.6063.1621,1.2037.34,1.7953.5281.1969.0625.3962.1211.5912.1864.722.2418,1.4327.5006,2.1268.7812.5255.2124,1.03.45,1.5374.6849.2581.1193.5269.226.78.351.75.3708,1.478.7655,2.1782,1.1866l46.96,28.2368,4.04,2.4294.4994-40.3946Z" transform="translate(-242.8169 -215.8389)"/><polygon class="cls-2" points="699.764 147.789 699.265 188.184 669.32 205.472 669.82 165.077 699.764 147.789"/><path class="cls-2" d="M793.1864,389.77l-2.1248-1.2777c-13.5673-8.1579-20.2789-18.7519-20.1489-29.2642l-.5,40.3945c-.13,10.5123,6.5816,21.1063,20.1489,29.2642l2.1249,1.2776,51,30.6662.5-40.3946Z" transform="translate(-242.8169 -215.8389)"/><path class="cls-1" d="M791.3861,330.6978c27.1667-15.6847,71.0756-15.2448,98.0695.9864l2.1248,1.2776,51,30.6662-29.944,17.2882-4.04-2.4294-46.96-28.2367c-11.0043-6.6169-28.5728-7.0442-39.2224-.8956-10.656,6.1522-10.2878,16.51.7166,23.1269l46.96,28.2368,4.04,2.4293-29.9441,17.2883-51-30.6662-2.1248-1.2776C764.0677,372.2608,764.213,346.3862,791.3861,330.6978Z" transform="translate(-242.8169 -215.8389)"/><polygon class="cls-2" points="631.314 187.309 630.815 227.703 600.871 244.991 601.37 204.597 631.314 187.309"/><path class="cls-2" d="M714.2537,397.7766c-4.1322-2.4847-6.1759-5.71-6.1363-8.9106l-.5,40.3945c-.04,3.2,2.0042,6.4259,6.1364,8.9105l82.8719,49.83.4994-40.3945Z" transform="translate(-242.8169 -215.8389)"/><polygon class="cls-2" points="584.253 214.48 583.753 254.874 553.809 272.162 554.309 231.768 584.253 214.48"/><path class="cls-1" d="M714.3461,380.1855c8.2682-4.7736,21.6318-4.64,29.8517.3028l82.8719,49.83-29.9441,17.2882-82.8719-49.83C706.0338,392.834,706.078,384.9591,714.3461,380.1855Z" transform="translate(-242.8169 -215.8389)"/><path class="cls-10" d="M700.7782,453.7478l-.5,40.3945c.1031-8.3343-5.4513-16.9253-16.56-23.6046-21.2412-12.7721-54.7359-13.7228-74.8157-2.13-9.58,5.5312-14.379,12.9174-14.473,20.5166l.5-40.3945c.094-7.5992,4.8926-14.9854,14.473-20.5166,20.08-11.5931,53.5745-10.6424,74.8157,2.13C695.3269,436.8225,700.8813,445.4135,700.7782,453.7478Z" transform="translate(-242.8169 -215.8389)"/><g class="cls-16"><path class="cls-2" d="M684.2186,430.1432a62.9087,62.9087,0,0,0-8.9859-4.4353,74.79,74.79,0,0,0-7.091-2.4317q-3.0024-.8675-6.1111-1.5126-2.7953-.5811-5.6475-.9812-2.732-.3835-5.4916-.6-2.7375-.2147-5.4789-.2635-2.8314-.05-5.6411.0775c-2.0357.0929-4.0559.2563-6.0495.4906-2.4128.2836-4.7866.6711-7.1013,1.1628a59.09,59.09,0,0,0-17.2178,6.3635,39.4953,39.4953,0,0,0-5.6149,3.89,30.1118,30.1118,0,0,0-3.664,3.6181,24.56,24.56,0,0,0-2.2789,3.1543,21.2678,21.2678,0,0,0-1.5194,3.02,19.3086,19.3086,0,0,0-.9479,3.0218,18.4313,18.4313,0,0,0-.4268,3.129q-.0168.3413-.0211.6833l-.5,40.3945q.0042-.342.0211-.6833a18.4414,18.4414,0,0,1,.4268-3.129,19.3053,19.3053,0,0,1,.9479-3.0218,21.2678,21.2678,0,0,1,1.5194-3.02,24.56,24.56,0,0,1,2.2789-3.1543,30.119,30.119,0,0,1,3.664-3.6181,39.5035,39.5035,0,0,1,5.6149-3.89,59.0885,59.0885,0,0,1,17.2178-6.3634c2.3148-.4919,4.6885-.8793,7.1013-1.1628,1.9936-.2343,4.0138-.3978,6.05-.4906q2.8054-.1281,5.6411-.0775,2.7374.0486,5.479.2634,2.7555.2162,5.4915.6,2.8478.4,5.6475.9812,3.1026.645,6.1111,1.5126a74.8183,74.8183,0,0,1,7.091,2.4317,62.8824,62.8824,0,0,1,8.9859,4.4353c11.1083,6.6793,16.6627,15.27,16.56,23.6046l.5-40.3946C700.8813,445.4135,695.3269,436.8225,684.2186,430.1432Z" transform="translate(-242.8169 -215.8389)"/></g><path class="cls-7" d="M700.7782,453.7478l-.5,40.3945c.1031-8.3343-5.4513-16.9253-16.56-23.6046-21.2412-12.7721-54.7359-13.7228-74.8157-2.13-9.58,5.5312-14.379,12.9174-14.473,20.5166l.5-40.3945c.094-7.5992,4.8926-14.9854,14.473-20.5166,20.08-11.5931,53.5745-10.6424,74.8157,2.13C695.3269,436.8225,700.8813,445.4135,700.7782,453.7478Z" transform="translate(-242.8169 -215.8389)"/><path class="cls-2" d="M779.9751,459.1782q-.0165.23-.0428.459-.0257.2233-.06.4453c-.0239.1518-.0515.3031-.0819.4538-.03.1463-.0617.2919-.0973.437-.0372.1518-.0782.3028-.1219.4533-.0416.1431-.0853.2857-.1327.4276-.05.15-.1041.2984-.16.4466-.0521.1369-.1058.2734-.1633.409-.07.166-.1462.3306-.2244.4946-.0609.1278-.1217.2554-.1873.382-.0857.1649-.1781.3281-.2718.4909-.0684.1191-.1354.2387-.2081.3566-.1531.2486-.3171.494-.4886.7371-.0381.054-.0719.1093-.1109.1632-.214.2948-.4425.585-.6826.8711-.0469.0559-.0985.11-.1464.1659q-.3953.4584-.8352.9c-.0712.0718-.1406.1444-.2136.2155q-.5014.4891-1.0537.9569c-.059.05-.1213.0981-.1811.1475-.4775.3946-.9778.779-1.5082,1.148-.0394.0274-.0813.0535-.121.0808-.5585.3838-1.1408.7553-1.7532,1.1089-.6358.3671-1.3056.7134-1.9956,1.0456-.0744.0359-.1464.0736-.2215.109-.6605.3118-1.3479.6042-2.0532.8822-.1136.0448-.2261.09-.3409.1341q-1.0472.4005-2.1547.7485c-.1277.04-.2565.0795-.3854.1187q-1.1229.3412-2.2981.6286c-.1145.0278-.2312.053-.3464.08-.686.16-1.3886.301-2.0989.4315-.2069.038-.41.0809-.6188.1163q-1.2781.2166-2.601.3682c-.1194.0134-.2411.0231-.3611.0357q-1.2437.1313-2.5216.2019c-.1.0055-.1991.0141-.3.0189-.9841.0477-1.9808.07-2.99.06l-12.0333-.1244-.5,40.3946,12.0333.1243q1.4373.0141,2.8418-.05c.05-.0023.0994-.007.15-.01.099-.0047.1958-.0132.2945-.0186q1.2816-.0695,2.5288-.2025c.1184-.0125.2382-.0219.356-.0353.0685-.0077.1388-.0125.2071-.0205.8122-.0953,1.6089-.2145,2.3955-.3478.2091-.0355.4121-.0784.6193-.1164.412-.0757.8284-.1458,1.2325-.2317.2917-.0619.5763-.132.8636-.1992.1166-.0272.2342-.0527.35-.0808q1.1758-.285,2.2968-.6283c.1288-.0391.2571-.0782.3848-.1185q1.1064-.3485,2.1552-.7486c.1148-.044.2272-.0894.341-.1342.705-.2779,1.3919-.57,2.0521-.8817.0761-.0359.1488-.074.2243-.11.6893-.3319,1.3584-.678,1.9938-1.0448.6115-.353,1.1928-.7239,1.75-1.1071.041-.0282.0842-.055.1249-.0834.5292-.3683,1.0284-.7517,1.505-1.1455.0371-.0306.08-.0584.1172-.0892.0236-.02.0436-.0411.0671-.0609q.5518-.4667,1.0519-.9554c.0734-.0715.143-.1443.2147-.2165q.4384-.4419.8346-.9c.0335-.0387.0731-.0753.106-.1142.0144-.017.0263-.0347.0406-.0518.24-.2862.4687-.5764.6828-.8714.0385-.053.0717-.1076.1093-.1609.1719-.2436.3362-.49.49-.7387.0205-.0332.0452-.0652.0653-.0985.0518-.0856.0944-.1737.144-.26.093-.162.1851-.3243.27-.4884.0661-.1272.1271-.2557.1883-.3841.078-.1634.1536-.3274.2237-.4927.0247-.0584.0551-.1153.0789-.1739.0317-.0781.0552-.1582.0851-.2368.0561-.1476.11-.2957.16-.4447.0475-.1425.0914-.2855.1331-.4292q.0655-.2255.1218-.4525c.0169-.069.04-.1368.0554-.2061.0172-.0764.0263-.1544.0418-.2311q.0456-.2256.0818-.4529c.0235-.1485.0433-.2976.0606-.4472q.0261-.228.0427-.4576c.0053-.0746.0171-.1481.0208-.2229q.0117-.2317.0131-.4651l.5-40.3945C780.0075,458.7213,779.9914,458.95,779.9751,459.1782Z" transform="translate(-242.8169 -215.8389)"/><path class="cls-10" d="M550.8441,486.7791l.5-40.3945c-.1879,15.1966,9.94,30.86,30.1969,43.04,38.7277,23.2866,99.812,25.0238,136.4408,3.8762,8.8364-5.1017,15.4311-11.07,19.8267-17.5171l-.5,40.3945c-4.3956,6.4475-10.99,12.4154-19.8267,17.5171-36.6288,21.1476-97.7131,19.41-136.4408-3.8762C560.7846,517.6389,550.6562,501.9757,550.8441,486.7791Z" transform="translate(-242.8169 -215.8389)"/><g class="cls-17"><path class="cls-2" d="M734.9083,479.5891a54.91,54.91,0,0,1-6.678,6.6052,71.836,71.836,0,0,1-10.249,7.1063,107.7944,107.7944,0,0,1-31.4079,11.6082c-4.2223.897-8.5519,1.6037-12.9527,2.1209-3.6359.4273-7.32.7254-11.0329.8947q-5.1164.2336-10.288.1414-4.9921-.0886-9.9918-.4805-5.0253-.394-10.0144-1.0938-5.1931-.7291-10.2985-1.7892-5.6574-1.1761-11.1433-2.7581a136.4306,136.4306,0,0,1-12.9292-4.4338,114.6575,114.6575,0,0,1-16.3821-8.086c-20.2564-12.18-30.3848-27.8432-30.1969-43.04l-.5,40.3945c-.1879,15.1966,9.94,30.86,30.1969,43.04a114.6629,114.6629,0,0,0,16.3821,8.086,136.385,136.385,0,0,0,12.9293,4.4338q5.4744,1.5816,11.1432,2.7581,5.0972,1.06,10.2985,1.7892,4.9818.7,10.0144,1.0938,4.9925.3915,9.9919.4805,5.1635.0918,10.2879-.1413c3.7125-.1694,7.3971-.4674,11.033-.8948,4.4007-.5172,8.73-1.2239,12.9526-2.1209a107.7944,107.7944,0,0,0,31.4079-11.6082,71.8144,71.8144,0,0,0,10.249-7.1064,54.9091,54.9091,0,0,0,6.678-6.6051,46.2455,46.2455,0,0,0,2.9-3.8056l.5-40.3946A46.2245,46.2245,0,0,1,734.9083,479.5891Z" transform="translate(-242.8169 -215.8389)"/></g><path class="cls-7" d="M550.8441,486.7791l.5-40.3945c-.1879,15.1966,9.94,30.86,30.1969,43.04,38.7277,23.2866,99.812,25.0238,136.4408,3.8762,8.8364-5.1017,15.4311-11.07,19.8267-17.5171l-.5,40.3945c-4.3956,6.4475-10.99,12.4154-19.8267,17.5171-36.6288,21.1476-97.7131,19.41-136.4408-3.8762C560.7846,517.6389,550.6562,501.9757,550.8441,486.7791Z" transform="translate(-242.8169 -215.8389)"/><path class="cls-1" d="M744.063,450.9713l35.98.3605-.0337,7.1587c-.0308,4.8918-3.4219,9.2868-8.8808,12.4384s-12.9856,5.06-21.2869,4.9789l-12.0333-.1243c-4.3956,6.4475-10.99,12.4154-19.8267,17.5171-36.6288,21.1476-97.7131,19.41-136.4408-3.8762s-40.4348-59.3052-3.806-80.4528c36.6225-21.144,97.7068-19.4068,136.4345,3.88C732.2452,423.72,742.2491,437.3588,744.063,450.9713Zm-57.75,23.2874c20.08-11.5931,19.1407-31.3471-2.0942-44.1155-21.2412-12.7721-54.7359-13.7228-74.8157-2.13-20.086,11.5967-19.1532,31.3469,2.088,44.1191,21.235,12.7684,54.7359,13.7228,74.8219,2.1261" transform="translate(-242.8169 -215.8389)"/><path class="cls-9" d="M686.9043,472.02c-1.0527-.7334-2.01-1.3574-2.9282-1.9091q-1.0254-.6168-2.0982-1.2022c-.1225-.0664-.247-.1309-.372-.1953l-.231-.1191c-.5181-.2754-1.0366-.5508-1.5708-.8155-.1919-.0947-.3867-.1855-.582-.2773l-.4346-.2051c-.4014-.1924-.8018-.3838-1.2139-.5693-.2451-.1094-.4936-.2149-.7422-.32l-.46-.1972c-.3623-.1563-.7246-.3125-1.0913-.461l-.7222-.2822q-1.2825-.5038-2.6084-.9678l-.665-.2334c-1.0357-.3525-2.1016-.6884-3.1709-1.0009l-.8452-.2373c-.6411-.18-1.2862-.3545-1.938-.52-.3213-.081-.6431-.1621-.9683-.24q-1.0085-.2432-2.0254-.4609l-.8564-.1856c-.6055-.124-1.2188-.2373-1.8355-.3506l-.8525-.1582c-.8823-.1513-1.77-.292-2.6553-.417-.1977-.0283-.396-.0517-.5947-.0761l-.4653-.06c-.5323-.0693-1.0645-.1387-1.6011-.1992-.229-.0254-.4575-.0469-.6865-.0684l-.4937-.0478c-.4971-.05-.9941-.0987-1.4888-.1387-.2968-.0244-.5937-.044-.8911-.0645l-.2466-.0166c-.5014-.0341-1.0019-.0693-1.5034-.0947-.3979-.02-.7959-.0361-1.19-.0508-.4976-.0195-.9937-.0371-1.4937-.05q-.5668-.0117-1.1352-.0166c-.5254-.0039-1.05-.0058-1.5737-.0029q-.5868.0043-1.1724.0156c-.5425.0117-1.0816.0283-1.6143.0488-.33.0118-.6587.0245-.99.0411q-1.1227.057-2.2383.1416l-.6015.0429c-.9615.08-1.9161.1729-2.856.2832l-.1528.0205c-1.0484.1241-2.0889.2735-3.12.4375l-.7163.1163c-1.23.207-2.2451.3974-3.1943.6005-.8164.1729-1.6211.3575-2.4.5518l-.1738.0459q-1.0818.2711-2.1367.5693c-.5372.1543-1.065.32-1.5874.4844l-.233.07c-.143.043-.2861.085-.4209.13-.6826.2207-1.3554.4551-2.08.7178l-.1167.041c-.6973.2559-1.3843.5244-2.15.8379-.6543.27-1.2969.5537-1.9658.8594l-.1285.0576c-.5942.2744-1.1752.5625-1.7514.8564l-.0908.044-.1851.0918q-.99.5127-1.9419,1.06l-.0029.002-.2471.1494a1.5,1.5,0,0,0-.0986,2.5244c1.0478.7305,2.0058,1.3555,2.9287,1.91,11.3418,6.8213,26.1987,10.2862,40.6645,10.2862,12.7549,0,25.2056-2.6944,34.6719-8.1592l.2344-.1426a1.5,1.5,0,0,0,.1-2.5254Zm-6.9353.9747c-7.87,3.4859-17.6439,5.3757-28.0707,5.3757-13.3893,0-26.62-3.1526-36.6567-8.6925.4155-.1852.81-.3548,1.1931-.513l.0784-.0305c.65-.2673,1.29-.5165,1.9049-.7423l.1616-.056c.6694-.2435,1.2823-.4553,1.8747-.6478.0978-.0318.1988-.0617.3-.0919l.3045-.0926.0745-.0233c.4675-.1466.9349-.2934,1.41-.4291.6261-.1785,1.2786-.3527,1.9937-.5319l.14-.0371c.7531-.1873,1.5151-.3625,2.275-.5238.8839-.1882,1.8667-.3728,3.0061-.5646q.3348-.0563.6734-.1094c1.0713-.17,2.0348-.3055,2.9468-.4139l.1278-.0166c.8715-.1025,1.7812-.1926,2.72-.27l.2886-.0206.2809-.02q1.059-.08,2.1249-.1344c.31-.0154.6219-.0272.9335-.0391.5126-.02,1.024-.0358,1.5383-.0465q.5544-.0111,1.1133-.015l.5358-.0018q.4784,0,.9577.0054c.3623.0038.7223.0076,1.0829.0158.4713.0107.9433.0281,1.4157.0465l.1729.0068c.32.0125.6392.0247.9587.0415.4795.0252.9568.0581,1.4342.0911l.3048.0207c.2575.0173.5151.0345.7725.0554.4912.04.9836.0891,1.4761.1381l.0679.0068.3694.0356c.2078.02.4156.0393.623.0624.5207.0579,1.038.1258,1.5553.1934l.0989.013.3828.048c.1634.02.3268.04.49.063.8238.1163,1.6727.25,2.524.3962.15.0259.2991.0546.4487.0832l.3612.068c.5825.1063,1.1636.2137,1.7373.3314.1648.0337.3276.07.4906.1058l.3224.07q.9615.2075,1.9182.4364.46.111.9169.2276.9225.2341,1.8288.49l.2693.0749c.178.0494.3561.0987.5329.15,1.0025.2931,2.0067.61,2.9836.9413.1226.0416.2443.085.366.1283l.2578.0912c.8192.2864,1.6433.5924,2.45.9093l.2956.1145c.1269.0488.2538.0974.3791.1483.3239.1315.6427.2689.9614.4061l.199.0856.3145.1339c.2243.0953.4488.19.67.29.376.169.7451.3457,1.1142.5222l.1616.0772.3289.1548c.1577.0738.3156.1473.4707.2243.4948.2453.9759.5006,1.4564.7561l.2892.15c.09.0462.18.0921.2682.14Q679.8448,472.9258,679.969,472.9942Z" transform="translate(-242.8169 -215.8389)"/><path class="cls-9" d="M1047.3771,290.8685,953.875,234.6467a4.0056,4.0056,0,0,0-4.0489-.043l-6.3338,3.6566c-6.1494,3.55-9.7814,8.6928-10.0307,14.17-12.4438,1.6949-23.7519,5.3335-32.8426,10.5829-13.88,8.0139-21.6357,19.11-21.8542,31.2565q-.0051.0729-.0064.1452l-.3415,27.5758a111.81,111.81,0,0,0-39.1428-6.7366c-18.7887-.0008-36.5061,4.2537-49.8884,11.98-14.2821,8.2466-22.2562,19.5364-22.4672,31.8028q-.0042.0687-.0052.1371l0,.0239c-.001.0267-.0016.0531-.0018.0775,0,.0191,0,.0393,0,.06l-.37,29.92L746.26,377.06a34.1244,34.1244,0,0,0-17.3383-4.3469,35.3734,35.3734,0,0,0-14.2177,2.8108l.1436-11.6027c0-.0177,0-.0353,0-.053.0453-5.2749-3.1309-10.1064-8.9442-13.6021-5.239-3.15-12.1663-4.8847-19.5061-4.8848a37.9335,37.9335,0,0,0-18.67,4.51c-5.7687,3.3312-9.0019,8.0195-9.1161,13.2128-.0018.0336-.0031.067-.0037.1005l-.3457,27.971a170.6441,170.6441,0,0,0-17.8188-.9375c-24.6719-.0005-47.6524,5.4223-64.7082,15.2695-18.0335,10.412-28.1068,24.8382-28.3816,40.6359-.0054.07-.0085.1394-.0089.2083l-.5,40.3778c-.2118,17.1543,11.5012,34.11,32.1354,46.5183,1.294.7778,2.6468,1.5515,4.0211,2.3.3731.2031.7538.3978,1.1348.5922.2042.1042.4084.2083.611.3141l.5733.3009c.6266.33,1.2532.659,1.8965.976.1633.08.3287.1568.4942.2329.1031.0475.2064.0949.3081.144,2.7164,1.314,5.3058,2.4621,7.9148,3.5094,4.2328,1.6991,8.71,3.2349,13.3086,4.5647,3.715,1.0725,7.5632,2.0249,11.439,2.8314,3.4446.7163,6.996,1.3331,10.5558,1.8335,3.3733.474,6.8248.8511,10.2591,1.1206,3.3994.2671,6.843.4327,10.235.4922q1.488.0268,2.9841.0268c2.5143,0,5.0562-.0575,7.5551-.1711,3.8057-.1739,7.6133-.4829,11.3179-.9188,4.5281-.5316,9.0091-1.2649,13.3174-2.18a127.85,127.85,0,0,0,14.4062-3.9456c1.3555-.4594,2.5987-.9044,3.801-1.36l.1613-.0631.0607-.024c1.3052-.4983,2.4469-.9549,3.4932-1.3971.1259-.053.2539-.11.3818-.1673l.2251-.1c.9656-.4154,1.9981-.8651,3.0236-1.3466.2912-.1364.5794-.28.8673-.4239.1579-.0789.3157-.1578.4748-.2354l.49-.238c.5771-.28,1.1538-.5606,1.7159-.8532,1.1969-.6222,2.3668-1.2628,3.4757-1.9029,1.0107-.5835,2.0224-1.1984,3.0929-1.88.2747-.1748.5419-.3537.8091-.5331l.3776-.2521c.6142-.4065,1.1869-.7861,1.7415-1.1751.3775-.2646.7444-.5345,1.1113-.8047l.2141-.1575c.4927-.3623.9821-.7247,1.4577-1.0934.4428-.3432.8742-.6909,1.3029-1.04.0832-.068.1678-.1341.2524-.2.1556-.1221.3109-.2446.46-.3693.1632-.1368.3215-.2765.48-.4165l.25-.22.1044-.09c.2687-.232.5373-.4641.7991-.6989.6648-.597,1.3072-1.1985,1.9108-1.789.2184-.2137.4306-.4291.6428-.6446l.11-.1119c.5709-.579,1.0886-1.1246,1.5821-1.6674.2408-.265.4743-.5311.707-.7976l.1942-.2176c.13-.1441.2591-.2885.3825-.4344.1791-.2116.3506-.428.5217-.6448l.2319-.2919.1729-.2132c.1565-.1924.3127-.3849.4633-.58q.2433-.3142.4851-.638l9.9639.1035c.1738.002.3525.0021.53.0021.8664,0,1.7173-.0192,2.5292-.057l.5046-.0307c.8843-.0477,1.8045-.1216,2.7131-.2182l.552-.0543.057-.0061c.825-.0972,1.6751-.2205,2.5985-.3771l1.0082-.187c.3236-.0577.668-.1208,1.0028-.192.2383-.05.4792-.1067.72-.1637l.5792-.1346q1.2792-.31,2.5438-.6954l.401-.1228q1.2752-.4026,2.4044-.835l.38-.15c.8322-.3278,1.5828-.6507,2.2937-.9863l.267-.13c.82-.395,1.5588-.7824,2.2416-1.1765.666-.3841,1.3246-.8,2.0128-1.2721l.0756-.0506q.0357-.0232.0709-.0477c.5659-.3935,1.1278-.82,1.716-1.3011.0761-.0576.1428-.1109.18-.1421.0294-.0248.082-.0716.11-.0975l0,0c.4117-.3481.8287-.7272,1.24-1.1269l.039-.0386.2266-.2285c.3648-.367.705-.7334,1.0376-1.1178l.1326-.1523c.3413-.4044.6316-.7748.8947-1.1378.0182-.0252.0361-.0508.0536-.0765l.1-.1469c.2185-.31.4235-.6193.6093-.92l0,0c.0317-.0489.063-.098.0863-.1354l.0007,0c.06-.099.1154-.1977.1691-.2978l.038-.0681c.1021-.1786.2168-.3846.3283-.5973.0976-.1884.1831-.364.2623-.5334.0851-.178.1778-.3777.28-.6142.0389-.0844.075-.1668.1038-.237.0433-.1073.0787-.2023.1371-.37q.1039-.2747.1975-.55c.0665-.1993.1241-.39.18-.5807s.1064-.3762.1687-.6191c.0268-.0966.0527-.195.078-.31.0084-.0378.0159-.0757.0228-.1137l.037-.2055c.0412-.2036.0776-.4081.1086-.6091.0312-.1938.06-.4079.0832-.6168.0209-.1764.04-.3776.0624-.6586l.0133-.1493c.0037-.0421.0065-.0841.0084-.1263.01-.2092.0166-.4186.0178-.6229l.1734-14.029,10.8814,6.5428q.0447.0268.0908.0524a3.4422,3.4422,0,0,0,.4621.216,3.2813,3.2813,0,0,0,.4652.1643,3.9854,3.9854,0,0,0,2.0587.0073,3.2191,3.2191,0,0,0,.4291-.1456,3.42,3.42,0,0,0,.4824-.2177q.0417-.0225.0824-.0461L828.57,474.1772a4.0214,4.0214,0,0,0,2-3.41l.1614-13.0593,10.8945,6.5507q.0375.0225.0757.044a3.4272,3.4272,0,0,0,.4977.2329,3.2193,3.2193,0,0,0,.4382.1541,3.9863,3.9863,0,0,0,2.0648.0093,3.1889,3.1889,0,0,0,.43-.146,3.4118,3.4118,0,0,0,.4718-.2122q.0362-.0192.0715-.04l29.9559-17.2948a4.0213,4.0213,0,0,0,2-3.41l.47-38.0831,31.974,19.2255q.0438.0263.0887.0512a3.4457,3.4457,0,0,0,.4642.2171,3.2793,3.2793,0,0,0,.4654.1644,3.9874,3.9874,0,0,0,2.0581.0074,3.1961,3.1961,0,0,0,.4309-.1463,3.4087,3.4087,0,0,0,.4825-.2179c.0277-.0149.0551-.03.0823-.0461l29.9329-17.282a4.0224,4.0224,0,0,0,2-3.41l.2625-21.2066q.5307.0472,1.0393.0871c1.5733.1229,3.2452.2141,5.2624.2868l.1483.005.1.0033.5965.0219c.4719.018.9437.0358,1.4142.0442q1.1028.02,2.2092.0191c1.8621,0,3.7447-.0421,5.5953-.1251,1.6793-.0763,3.3693-.1886,5.025-.3336.9649-.0834,2.006-.1891,3.1791-.323l.1168-.0115c.0838-.008.1675-.0162.2507-.0259.1021-.0119.2019-.0264.3015-.0415l.1012-.0147c1.56-.1886,3.063-.3994,4.467-.6267l.37-.0626.06-.01-.3013,24.3474a3.991,3.991,0,0,0,3.5414,4.0233c1.2777.1483,2.66.2828,4.2243.4106l.1282.0127c.0965.01.1929.02.2891.0276.25.0195.5006.0342.7512.0487.1567.009.3134.018.47.0287.6783.0465,1.3565.0927,2.0346.1282.5347.0282,1.0684.049,1.604.07l.1674.0064c.6455.0248,1.2893.0486,1.9328.0636l.2819.01c.1509.0059.3017.0115.452.0142q1.1336.02,2.2757.02c1.0467,0,2.1844-.017,3.478-.0518l.1611-.0054.0869-.003.1487-.0042c.6395-.0183,1.2792-.0368,1.9162-.0656.18-.0082.36-.0206.54-.0333.113-.008.2261-.0161.3391-.0221.4914-.0261.98-.0589,1.4684-.0919l.2685-.0181c2.4017-.16,4.3879-.3357,6.25-.5541,3.6267-.4248,7.2278-1.0153,10.7031-1.7554a98.5554,98.5554,0,0,0,18.2295-5.7031l.1713-.0753.0718-.0318c1.0272-.4437,1.8563-.8164,2.6127-1.1745.196-.0923.393-.19.59-.2888l.3265-.1618.31-.1511c.5345-.2606,1.0686-.5215,1.59-.7938.9694-.5052,1.91-1.02,2.7926-1.53.8209-.474,1.6681-.9879,2.5182-1.5275.2341-.1485.4613-.3.6882-.4528l.3161-.2109.1843-.1215c.4032-.2659.8061-.532,1.1963-.8041.3089-.2156.6084-.4353.9077-.6553l.2316-.17.1518-.111c.3244-.2371.6484-.4744.9625-.7158.3858-.296.7587-.5977,1.1316-.9l.2531-.2009c.1411-.11.2818-.2211.4166-.3338.0825-.069.1616-.1385.2405-.2084l.1017-.0891q.4806-.4077.9482-.8258c.275-.2453.54-.49.8046-.7362a47.3333,47.3333,0,0,0,3.6911-3.8273c.0805-.0889.1325-.1472.1822-.2058.0188-.0223.0659-.08.0841-.1028.2992-.3537.6135-.74.9193-1.13l.0576-.075c.5951-.76,1.1868-1.5786,1.7451-2.4151l.1123-.169a35.133,35.133,0,0,0,3.2078-6.0363c.02-.0452.04-.09.0579-.1348.0258-.064.05-.13.0734-.1978.2753-.6952.5219-1.3846.7358-2.0559.0357-.112.07-.2264.1041-.341l.0371-.1236c.198-.6578.3625-1.27.5043-1.8777.028-.0911.0572-.1989.0813-.3065.0271-.1208.0487-.2435.0687-.3666l.0087-.0523c.114-.5471.2137-1.1.2937-1.6309q.0709-.466.1273-.94c.0555-.47.1-.9494.1339-1.4306.0029-.04.0083-.0821.0129-.1241.0177-.1606.0336-.3212.0415-.4813.0177-.3686.03-.7318.0338-1.0938l.5-40.3919c0-.0186,0-.0373,0-.056l.0009-.0489C1070.4657,311.89,1062.3066,299.8463,1047.3771,290.8685Zm18.4774,33.8107-.001.001.001-.0015ZM1061.82,380.825l-1.3471-.6839c-.4952.7427-1.02,1.4688-1.5987,2.2095-.2734.3481-.5547.6938-.84,1.0317-.01.0117-.1026.12-.1123.1319l-.1084.1225a42.9285,42.9285,0,0,1-3.3467,3.4678c-.2393.2236-.4795.4453-.7266.666q-.4292.3808-.8711.7578l-.3144.2744c-.0986.083-.2012.1631-.3047.2432l-.36.2871c-.3261.2637-.6513.5274-.99.7881-.2764.2119-.5615.42-.8467.6289l-.4365.32c-.2646.1943-.53.3887-.8057.5811-.3369.2353-.6835.4638-1.0312.6933l-.6094.4053c-.1924.1279-.3838.2568-.58.3818q-1.1512.731-2.3564,1.43-1.2846.7413-2.6279,1.4395c-.4873.2549-.9883.499-1.4883.7422l-.6631.3271c-.166.083-.3311.1651-.5029.2461-.81.3828-1.6358.749-2.4639,1.1065l-.2383.1064a94.1682,94.1682,0,0,1-17.3965,5.4385c-3.3388.7109-6.8007,1.2783-10.29,1.6875-1.7773.208-3.6924.3779-6.0264.5322l-.2646.0186c-.4688.0322-.9365.0634-1.4111.0878l-.4034.0264c-.1455.0108-.292.0215-.4384.0283-.6124.0274-1.2276.045-1.8428.0625l-.3877.0127c-1.8545.0489-3.7139.0635-5.5557.03l-.707-.0234c-.62-.0137-1.2412-.0371-1.8623-.0616l-.1572-.0058c-.5186-.02-1.0352-.04-1.5547-.0674-.6026-.0313-1.2061-.0723-1.8086-.1133l-.6719-.042c-.2187-.0127-.4375-.0254-.6553-.042l-.4043-.04c-1.3252-.1084-2.5166-.2207-3.6269-.3447l.3408-27.541a1.5,1.5,0,0,0-1.7959-1.4888q-1.6451.3311-3.32.6113l-.5781.0986c-1.3555.22-2.7588.4161-4.2862.6011l-.7422.09c-1.0127.1158-2.0312.2222-3.0615.3111-1.5937.14-3.2207.2475-4.834.3208-2.4912.1113-5.0293.147-7.5214.102-.4434-.0078-.8877-.0249-1.3321-.042l-.8467-.03c-1.9531-.07-3.5654-.1582-5.0722-.2764-1.2647-.0991-2.6319-.2334-4.1807-.41a1.4993,1.4993,0,0,0-1.67,1.4717l-.2988,24.1982-29.4424,16.9991-50.7471-30.5137c-.6865-.4131-1.4307-.8193-2.2129-1.2061-.1338-.0664-.2715-.1269-.458-.2089l-.49-.2207c-.4619-.2139-.9248-.4278-1.4073-.6231-.6777-.2734-1.3828-.5322-2.18-.8l-.5743-.1807c-.5976-.1894-1.2021-.37-1.8144-.5332l-.4483-.1211c-.48-.123-.9726-.2294-1.5527-.3535a1.5,1.5,0,0,0-1.0879,2.752l24.458,14.706-.4922,39.8233L843.6924,460.25l-15.1231-9.0928a1.5,1.5,0,0,0-2.2734,1.2666l-.2217,17.9981-29.44,17.001-15.1123-9.087a1.5,1.5,0,0,0-2.2735,1.2666l-.2382,19.2862c-.001.1455-.0059.2939-.0088.38l-.0166.19c-.0166.2109-.03.3623-.05.5224-.0147.1358-.0342.2754-.0576.4239-.0215.1416-.0479.2851-.084.4619l-.0655.3115c-.0517.2022-.0927.3525-.1357.499-.041.1387-.082.2784-.126.4112-.0488.1435-.1006.2861-.1709.4736l-.0683.1885,1.3916.5605-1.4444-.4433c-.083.1933-.1582.3545-.24.5263-.0537.1162-.1123.2364-.17.3487-.0869.164-.1758.3232-.2725.4941l-.1328.2393c-.0215.0293-.041.0586-.06.09-.1475.2393-.3057.4766-.4893.7363l-.0889.1319c-.207.2861-.4277.5654-.6435.8222l-.1426.1631c-.2715.3145-.543.6055-.83.8946l-.207.2089c-.3252.3164-.666.6289-1.0254.9317l.001.001c-.0254.0224-.05.0429-.0625.0566-.0117.0088-.0977.0732-.1094.083-.5078.418-.9883.7832-1.4668,1.1172-.042.0264-.0889.0566-.1367.0908-.5908.4053-1.1524.7608-1.7178,1.0869-.585.3369-1.2266.6739-1.97,1.0313l-.211.1035c-.6211.293-1.2822.5771-2.0234.8691l-.3369.1328c-.6709.2569-1.3867.5059-2.1143.7354l-.3925.12c-.7637.2324-1.5264.4414-2.254.6182l-.59.1367c-.2061.0488-.4131.0986-.6269.1435-.2862.0606-.5811.1143-.8887.169l-.9375.1748c-.7813.1318-1.5694.25-2.3447.3408l-.586.0586c-.832.0879-1.6738.1553-2.5137.2012l-.4375.0273c-.7539.0352-1.5332.0518-2.32.0518l-12-.1211a1.6235,1.6235,0,0,0-1.2441.6387c-.4141.5908-.8428,1.18-1.293,1.7607-.1318.169-.2685.3369-.4043.5039l-.4424.5518c-.1377.1748-.2744.35-.4189.5195-.0918.1084-.1885.2158-.2852.3223l-.248.2783c-.2129.2441-.4258.4883-.6455.73-.4717.5176-.959,1.03-1.4551,1.5332l-.2.2031c-.1641.166-.3281.333-.498.499q-.8585.8394-1.7676,1.6553c-.251.2256-.5088.4473-.7676.67l-.0762.0655-.2841.25c-.13.1152-.2588.23-.3926.3418-.1113.0937-.2276.1845-.3438.2753l-.3193.254c-.4.3261-.8027.65-1.2188.9726-.4443.3447-.9023.6846-1.3642,1.0234l-.1846.1358c-.35.2578-.6992.5146-1.0615.7685-.5332.375-1.085.74-1.6367,1.1045l-.4141.2764c-.2334.1563-.4668.3135-.709.4668-1.0088.6436-1.9668,1.2246-2.9258,1.7793-1.0683.6162-2.18,1.2246-3.3046,1.8086-.5176.2695-1.0508.5283-1.583.7871l-1.0372.5088c-.2519.126-.5039.2519-.7617.373-.9443.4424-1.9121.8662-2.8867,1.2852l-.582.2558c-1.0957.4629-2.2139.9053-3.3438,1.337l-.2158.0849c-1.15.4365-2.3779.875-3.6494,1.3057a123.2578,123.2578,0,0,1-13.8965,3.8066c-4.1733.8858-8.5161,1.5957-12.9087,2.1123-3.5986.4229-7.2983.7237-10.9961.8926-3.3955.1533-6.85.2012-10.2563.14-3.3018-.0577-6.6534-.2188-9.9619-.4786-3.3423-.2626-6.7017-.63-9.9844-1.0908-3.4629-.4873-6.917-1.0869-10.2656-1.7832-3.7647-.7832-7.5015-1.708-11.106-2.749-4.4536-1.2871-8.7881-2.7744-12.8823-4.417-2.5137-1.01-5.0108-2.1172-7.6319-3.3848l-.4-.1875c-.1259-.0576-.2519-.1152-.372-.1748-.5938-.292-1.1719-.5966-1.75-.9l-1.2891-.67c-.34-.1738-.68-.3467-1.0132-.5283-1.31-.7139-2.6074-1.4551-3.8545-2.2041-19.228-11.5635-30.146-27.0928-29.9545-42.6064l.4985-40.293c.0044-.044.0073-.0869.0078-.13.1875-14.21,9.4687-27.335,26.1343-36.958,21.2031-12.2412,52.248-17.2432,83.0493-13.38a1.5,1.5,0,0,0,1.6865-1.47l.3853-31.2056q.0021-.0366.0029-.0732c.0483-3.5879,2.4873-6.9575,6.8682-9.4873,9.2983-5.3672,24.3769-5.2168,33.6074.334,4.3935,2.6416,6.7959,6.0913,6.7627,9.7534,0,.0127,0,.0259.001.0386l-.21,16.8969a1.5,1.5,0,0,0,2.4277,1.1973,16.7594,16.7594,0,0,1,2.03-1.39c8.1152-4.6851,21.2783-4.5513,29.3447.2978l24.7627,14.8892a1.5,1.5,0,0,0,2.2735-1.2666l.4355-35.2168v-.0142c.002-.0293.0039-.0591.0039-.0884.1387-10.664,7.3194-20.64,20.22-28.0888,23.7207-13.6958,62.0391-15.13,89.128-3.334a1.5,1.5,0,0,0,2.0986-1.357l.3936-31.85c.0039-.04.0058-.0791.0068-.1186.1377-10.5527,7.1016-20.3408,19.6064-27.561,9.1944-5.3086,20.8545-8.8824,33.72-10.3345a1.5005,1.5005,0,0,0,1.332-1.4722l.0244-1.9487.001-.1289v-.04c.001-.017.0019-.0346.0019-.0517.0459-4.0752,2.8145-7.9024,7.794-10.7764l6.0664-3.5024,93.249,56.07c13.4971,8.1157,20.88,18.7646,20.794,29.9873-.002.04-.0039.0908-.0039.12,0,.0254.0009.0513.0019.0772l-.499,40.3144q-.0058.4629-.0283.9258c-.0039.07-.0127.1392-.02.2085-.0117.1016-.0224.2031-.0293.3037q-.0424.6064-.1132,1.2085c-.0323.2676-.0674.5327-.1094.8071-.07.4673-.1553.9327-.251,1.3921-.0166.08-.03.1612-.0439.2427l-.0323.1553c-.0215.0722-.042.1445-.0576.2138-.125.5357-.2695,1.0679-.4287,1.5948l-.1211.4018c-.1924.6026-.4111,1.2114-.6514,1.814l-.0234.0762c-.0127.0258-.0381.0835-.0488.11a30.7024,30.7024,0,0,1-2.8242,5.3208l1.2514.8259Z" transform="translate(-242.8169 -215.8389)"/></svg>